<?xml version="1.0" standalone="no"?>
<!DOCTYPE svg PUBLIC "-//W3C//DTD SVG 1.1//EN" "http://www.w3.org/Graphics/SVG/1.1/DTD/svg11.dtd" >
<svg xmlns="http://www.w3.org/2000/svg" xmlns:xlink="http://www.w3.org/1999/xlink" version="1.1">
<metadata>
Created by FontForge 20170731 at Thu Aug  8 17:10:52 2019
 By Aleksey,,,
</metadata>
<defs>
<font id="FontAwesome5Free-Regular" horiz-adv-x="512" >
  <font-face 
    font-family="Font Awesome 5 Free Regular"
    font-weight="400"
    font-stretch="normal"
    units-per-em="512"
    panose-1="2 0 5 3 0 0 0 0 0 0"
    ascent="448"
    descent="-64"
    bbox="-1.04167 -64.6 640.545 448.68"
    underline-thickness="25"
    underline-position="-99"
    unicode-range="U+F004-F5C8"
  />
<missing-glyph 
 />
    <glyph glyph-name=".notdef" 
 />
    <glyph glyph-name=".notdef" 
 />
    <glyph glyph-name=".null" horiz-adv-x="0" 
 />
    <glyph glyph-name="nonmarkingreturn" horiz-adv-x="170" 
 />
    <glyph glyph-name="heart" unicode="&#xf004;" 
d="M458 384q36 -31 48 -73.5t1 -81.5t-38 -67l-175 -178q-16 -16 -38 -16t-38 16l-175 178q-16 17 -26.5 38.5t-14.5 45.5t-0.5 48t17 47.5t35.5 42.5q43 36 101.5 31.5t100.5 -46.5q42 42 100.5 46.5t101.5 -31.5zM435 196q29 30 29 73.5t-36 77.5q-7 5 -14 9.5t-15 7
t-16 4t-16 1.5t-16 -1.5t-16 -4t-16 -6.5t-15 -9t-13 -12l-35 -35l-35 35q-28 29 -67.5 32t-68.5 -21q-37 -34 -37 -77.5t29 -73.5l176 -178q3 -4 6 0z" />
    <glyph glyph-name="star" unicode="&#xf005;" horiz-adv-x="576" 
d="M528 276q13 -1 20.5 -11t7 -22t-9.5 -21l-106 -103l25 -146q2 -12 -5 -22.5t-18 -13.5t-23 3l-131 68l-131 -68q-17 -10 -33 2t-13 31l25 146l-106 103q-14 14 -8 33t26 21l146 22l65 132q9 18 29 18t29 -18l65 -132zM389 136l100 98l-139 20l-62 126l-62 -126l-139 -20
l100 -98l-23 -139l124 66l124 -66z" />
    <glyph glyph-name="user" unicode="&#xf007;" horiz-adv-x="448" 
d="M314 144q55 0 94.5 -39.5t39.5 -94.5v-26q0 -20 -14 -34t-34 -14h-352q-20 0 -34 14t-14 34v26q0 55 39.5 94.5t94.5 39.5q13 0 38.5 -8t51.5 -8t52 8t38 8zM400 -16v26q0 23 -11.5 43t-31.5 31.5t-43 11.5q-3 0 -31.5 -8t-58.5 -8t-58.5 8t-31.5 8q-35 0 -60.5 -25.5
t-25.5 -60.5v-26h352zM224 160q-60 0 -102 42t-42 102t42 102t102 42t102 -42t42 -102t-42 -102t-102 -42zM224 400q-40 0 -68 -28t-28 -68t28 -68t68 -28t68 28t28 68t-28 68t-68 28z" />
    <glyph glyph-name="clock" unicode="&#xf017;" 
d="M256 440q103 0 175.5 -72.5t72.5 -175.5t-72.5 -175.5t-175.5 -72.5t-175.5 72.5t-72.5 175.5t72.5 175.5t175.5 72.5zM256 -8q83 0 141.5 58.5t58.5 141.5t-58.5 141.5t-141.5 58.5t-141.5 -58.5t-58.5 -141.5t58.5 -141.5t141.5 -58.5zM318 96l-85 62q-2 1 -3 2.5
t-1.5 3.5t-0.5 4v164q0 3 1.5 6t4.5 4.5t6 1.5h32q5 0 8.5 -3.5t3.5 -8.5v-142l67 -48q9 -7 2 -17l-18 -26q-7 -10 -17 -3z" />
    <glyph glyph-name="list-alt" unicode="&#xf022;" 
d="M464 416q20 0 34 -14t14 -34v-352q0 -20 -14 -34t-34 -14h-416q-20 0 -34 14t-14 34v352q0 20 14 34t34 14h416zM458 16q6 0 6 6v340q0 6 -6 6h-404q-6 0 -6 -6v-340q0 -6 6 -6h404zM416 108v-24q0 -12 -12 -12h-200q-12 0 -12 12v24q0 12 12 12h200q12 0 12 -12z
M416 204v-24q0 -12 -12 -12h-200q-12 0 -12 12v24q0 12 12 12h200q12 0 12 -12zM416 300v-24q0 -12 -12 -12h-200q-12 0 -12 12v24q0 12 12 12h200q12 0 12 -12zM164 288q0 -15 -10.5 -25.5t-25.5 -10.5t-25.5 10.5t-10.5 25.5t10.5 25.5t25.5 10.5t25.5 -10.5t10.5 -25.5z
M164 192q0 -15 -10.5 -25.5t-25.5 -10.5t-25.5 10.5t-10.5 25.5t10.5 25.5t25.5 10.5t25.5 -10.5t10.5 -25.5zM164 96q0 -15 -10.5 -25.5t-25.5 -10.5t-25.5 10.5t-10.5 25.5t10.5 25.5t25.5 10.5t25.5 -10.5t10.5 -25.5z" />
    <glyph glyph-name="flag" unicode="&#xf024;" 
d="M336 368q44 0 109 28q17 6 31.5 2.5t25 -16.5t10.5 -30v-240q0 -26 -22 -40q-11 -8 -23 -14t-28.5 -12.5t-36 -10t-40.5 -3.5q-37 0 -88.5 16t-73.5 16q-40 0 -68 -7t-60 -22v-83q0 -7 -4.5 -11.5t-11.5 -4.5h-16q-3 0 -6 1.5t-5 3.5t-3.5 5t-1.5 6v406q-24 14 -24 42
q0 21 15 35t36 13q7 -1 13.5 -3t11.5 -6t9.5 -9t7 -11.5t3.5 -12.5v-6q0 -2 -0.5 -5t-1 -5.5t-0.5 -4.5q39 15 80 15q29 0 59.5 -8t56.5 -16t46 -8zM464 112v240q-69 -32 -128 -32q-30 0 -81 16t-81 16q-57 0 -102 -32v-232q52 24 128 24q30 0 81 -16t81 -16q29 0 56 9.5
t46 22.5z" />
    <glyph glyph-name="bookmark" unicode="&#xf02e;" horiz-adv-x="384" 
d="M336 448q20 0 34 -14t14 -34v-464l-192 112l-192 -112v464q0 20 14 34t34 14h288zM336 20v374q0 6 -6 6h-276q-6 0 -6 -6v-374l144 84z" />
    <glyph glyph-name="image" unicode="&#xf03e;" 
d="M464 384q20 0 34 -14t14 -34v-288q0 -20 -14 -34t-34 -14h-416q-20 0 -34 14t-14 34v288q0 20 14 34t34 14h416zM458 48q6 0 6 6v276q0 6 -6 6h-404q-6 0 -6 -6v-276q0 -6 6 -6h404zM128 296q17 0 28.5 -11.5t11.5 -28.5t-11.5 -28.5t-28.5 -11.5t-28.5 11.5t-11.5 28.5
t11.5 28.5t28.5 11.5zM96 96v48l40 40q8 8 16 0l40 -40l120 120q2 2 5 2.5t6 0t5 -2.5l88 -88v-80h-320z" />
    <glyph glyph-name="edit" unicode="&#xf044;" horiz-adv-x="576" 
d="M402 103l32 32q4 4 9 2t5 -8v-145q0 -20 -14 -34t-34 -14h-352q-20 0 -34 14t-14 34v352q0 20 14 34t34 14h274q5 0 7 -5t-2 -9l-32 -32q-2 -2 -5 -2h-242v-352h352v114q0 3 2 5zM559 305l-263 -263l-90 -10q-20 -2 -34 12t-12 34l10 90l263 263q11 11 26 15t30 0t27 -15
l43 -43q17 -17 17 -41.5t-17 -41.5zM460 274l-58 58l-186 -186l-7 -65l65 7zM525 354l-43 43q-8 7 -15 0l-31 -31l58 -58l31 31q6 7 0 15z" />
    <glyph glyph-name="times-circle" unicode="&#xf057;" 
d="M256 440q103 0 175.5 -72.5t72.5 -175.5t-72.5 -175.5t-175.5 -72.5t-175.5 72.5t-72.5 175.5t72.5 175.5t175.5 72.5zM256 -8q83 0 141.5 58.5t58.5 141.5t-58.5 141.5t-141.5 58.5t-141.5 -58.5t-58.5 -141.5t58.5 -141.5t141.5 -58.5zM358 254l-62 -62l62 -62
q8 -9 0 -17l-23 -23q-8 -8 -17 0l-62 62l-62 -62q-9 -8 -17 0l-23 23q-8 8 0 17l62 62l-62 62q-8 9 0 17l23 23q8 8 17 0l62 -62l62 62q9 8 17 0l23 -23q8 -8 0 -17z" />
    <glyph glyph-name="check-circle" unicode="&#xf058;" 
d="M256 440q103 0 175.5 -72.5t72.5 -175.5t-72.5 -175.5t-175.5 -72.5t-175.5 72.5t-72.5 175.5t72.5 175.5t175.5 72.5zM256 392q-83 0 -141.5 -58.5t-58.5 -141.5t58.5 -141.5t141.5 -58.5t141.5 58.5t58.5 141.5t-58.5 141.5t-141.5 58.5zM396 262q9 -9 0 -17l-172 -171
q-2 -2 -4.5 -3t-4.5 -1t-4.5 1t-3.5 3l-91 91q-9 9 0 17l23 23q8 8 17 0l59 -61l142 141q8 8 17 -1z" />
    <glyph glyph-name="question-circle" unicode="&#xf059;" 
d="M256 440q103 0 175.5 -72.5t72.5 -175.5t-72.5 -175.5t-175.5 -72.5t-175.5 72.5t-72.5 175.5t72.5 175.5t175.5 72.5zM256 -8q83 0 141.5 58.5t58.5 141.5t-58.5 141.5t-141.5 58.5t-141.5 -58.5t-58.5 -141.5t58.5 -141.5t141.5 -58.5zM363 247q0 -18 -7.5 -32.5
t-18 -22t-21 -13.5t-18 -12t-7.5 -13v-6q0 -5 -3.5 -8.5t-8.5 -3.5h-46q-5 0 -8.5 3.5t-3.5 8.5v9q0 16 9 29.5t16.5 18.5t22.5 13q15 9 21.5 15t6.5 15q0 12 -12.5 20t-27.5 8q-7 0 -12.5 -1t-10 -3.5t-9 -6.5t-8.5 -8t-9 -11q-7 -9 -16 -2l-28 21q-9 7 -3 17q37 54 101 54
q38 0 69.5 -26t31.5 -63zM298 80q0 -17 -12.5 -29.5t-29.5 -12.5t-29.5 12.5t-12.5 29.5t12.5 29.5t29.5 12.5t29.5 -12.5t12.5 -29.5z" />
    <glyph glyph-name="eye" unicode="&#xf06e;" horiz-adv-x="576" 
d="M288 304q47 0 79.5 -32.5t32.5 -79.5q0 -22 -9 -43t-24 -36t-35.5 -23.5t-43 -8.5t-43.5 8.5t-36 23.5t-23.5 36t-8.5 43v7.5t0.5 8.5t1.5 8t2 7q13 -7 27 -7q23 0 39.5 16.5t16.5 39.5q0 14 -7 27q15 5 31 5zM573 207l3 -15q0 -8 -3 -15q-42 -80 -118 -128.5t-167 -48.5
t-167 48.5t-118 128.5q-3 7 -3 15t3 15q42 80 118 128.5t167 48.5q60 0 115.5 -22.5t98.5 -62t71 -92.5zM288 48q74 0 137.5 38.5t100.5 105.5q-24 44 -61 76.5t-82.5 50t-94.5 17.5q-74 0 -137.5 -38.5t-100.5 -105.5q37 -67 100.5 -105.5t137.5 -38.5z" />
    <glyph glyph-name="eye-slash" unicode="&#xf070;" horiz-adv-x="640" 
d="M634 -23q1 -1 2 -2.5l2 -3t1.5 -3.5t0.5 -3.5t-0.5 -3.5t-1.5 -3.5t-2 -3.5l-10 -12q-4 -6 -12 -6q-6 0 -10 4l-598 467q-2 2 -4 5.5t-2 6.5q0 6 4 11l10 12q4 6 12 6q6 0 10 -4zM297 302q11 2 23 2q15 0 29 -4t26 -11t22.5 -16.5t17.5 -21.5t11.5 -26t5.5 -29zM343 82
q-11 -2 -23 -2q-30 0 -55 14.5t-40 39t-17 54.5zM320 336q-27 0 -58 -7l-47 36q53 19 105 19q91 0 167 -48.5t118 -128.5q1 -2 1.5 -5t1 -5.5t0.5 -4.5q0 -8 -3 -15q-22 -41 -53 -75l-38 30q26 27 44 60q-24 44 -61 76.5t-82.5 50t-94.5 17.5zM320 48q14 0 28.5 2t29.5 5
l47 -36q-53 -19 -105 -19q-91 0 -167 48.5t-118 128.5q-3 7 -3 15t3 15q22 41 53 75l38 -30q-26 -27 -44 -60q37 -67 100.5 -105.5t137.5 -38.5z" />
    <glyph glyph-name="calendar-alt" unicode="&#xf073;" horiz-adv-x="448" 
d="M148 160h-40q-12 0 -12 12v40q0 12 12 12h40q12 0 12 -12v-40q0 -12 -12 -12zM256 172q0 -12 -12 -12h-40q-12 0 -12 12v40q0 12 12 12h40q12 0 12 -12v-40zM352 172q0 -12 -12 -12h-40q-12 0 -12 12v40q0 12 12 12h40q12 0 12 -12v-40zM256 76q0 -12 -12 -12h-40
q-12 0 -12 12v40q0 12 12 12h40q12 0 12 -12v-40zM160 76q0 -12 -12 -12h-40q-12 0 -12 12v40q0 12 12 12h40q12 0 12 -12v-40zM352 76q0 -12 -12 -12h-40q-12 0 -12 12v40q0 12 12 12h40q12 0 12 -12v-40zM448 336v-352q0 -20 -14 -34t-34 -14h-352q-20 0 -34 14t-14 34
v352q0 20 14 34t34 14h48v52q0 12 12 12h40q12 0 12 -12v-52h128v52q0 12 12 12h40q12 0 12 -12v-52h48q20 0 34 -14t14 -34zM400 -10v298h-352v-298q0 -6 6 -6h340q6 0 6 6z" />
    <glyph glyph-name="comment" unicode="&#xf075;" 
d="M256 416q106 0 181 -61t75 -147t-75 -147t-181 -61q-47 0 -93 14q-65 -46 -139 -46q-16 0 -22 14.5t4 25.5q2 2 9.5 10.5t19 27t18.5 36.5q-53 56 -53 126q0 86 75 147t181 61zM256 48q86 0 147 47t61 113t-61 113t-147 47t-147 -47t-61 -113q0 -51 40 -93l20 -22
l-10 -28q-3 -7 -6.5 -14.5t-6.5 -13.5t-7 -13q30 10 57 29l20 14l23 -7q38 -12 78 -12z" />
    <glyph glyph-name="folder" unicode="&#xf07b;" 
d="M464 320q20 0 34 -14t14 -34v-224q0 -20 -14 -34t-34 -14h-416q-20 0 -34 14t-14 34v288q0 20 14 34t34 14h147q13 -1 22 -9l55 -55h192zM464 48v224h-199q-3 0 -6 0.5t-6 2t-5.5 3t-4.5 3.5l-55 55h-140v-288h416z" />
    <glyph glyph-name="folder-open" unicode="&#xf07c;" horiz-adv-x="576" 
d="M528 224q28 0 42 -24.5t-1 -48.5l-80 -128q-14 -23 -41 -23h-400q-20 0 -34 14t-14 34v288q0 20 14 34t34 14h160l64 -64h160q20 0 34 -14t14 -34v-48h48zM48 330v-233l63 104q14 23 41 23h280v42q0 6 -6 6h-174l-64 64h-134q-6 0 -6 -6zM448 48l80 128h-379l-77 -128
h376z" />
    <glyph glyph-name="chart-bar" unicode="&#xf080;" 
d="M397 96q-5 0 -9 4t-4 9v230q0 5 4 9t9 4h22q5 0 9 -4t4 -9v-230q0 -5 -4 -9t-9 -4h-22zM205 96q-5 0 -9 4t-4 9v198q0 5 4 9t9 4h22q5 0 9 -4t4 -9v-198q0 -5 -4 -9t-9 -4h-22zM301 96q-5 0 -9 4t-4 9v134q0 5 4 9t9 4h22q5 0 9 -4t4 -9v-134q0 -5 -4 -9t-9 -4h-22z
M496 48q7 0 11.5 -4.5t4.5 -11.5v-16q0 -7 -4.5 -11.5t-11.5 -4.5h-464q-13 0 -22.5 9.5t-9.5 22.5v336q0 7 4.5 11.5t11.5 4.5h16q7 0 11.5 -4.5t4.5 -11.5v-320h448zM109 96q-5 0 -9 4t-4 9v70q0 5 4 9t9 4h22q5 0 9 -4t4 -9v-70q0 -5 -4 -9t-9 -4h-22z" />
    <glyph glyph-name="comments" unicode="&#xf086;" horiz-adv-x="576" 
d="M532 62q4 -9 9.5 -17.5t10 -15t9 -12t7 -8l2.5 -2.5q10 -11 4 -25t-21 -14q-37 0 -68 11t-57 28q-30 -7 -60 -7q-64 0 -115.5 27t-75.5 71q-3 0 -6 0.5l-6 1t-5.5 1t-5.5 1t-6 1.5q-11 -8 -24 -14.5t-28.5 -12t-34.5 -9t-38 -3.5q-15 0 -21 14t4 25q21 20 38 55
q-44 43 -44 98q0 43 28 80t75.5 58.5t104.5 21.5q42 0 80.5 -12.5t67 -34.5t44.5 -51q75 -9 125.5 -53.5t50.5 -104.5q0 -55 -44 -98zM139 154l20 -4q12 -3 24.5 -4.5t24.5 -1.5q65 0 112.5 33t47.5 79q0 30 -21.5 56t-58.5 41t-80 15q-65 0 -112.5 -33t-47.5 -79
q0 -35 30 -64l24 -24l-15 -32l-8 -14q22 7 43 21zM498 96q8 8 14 16.5t11 21.5t5 26q0 18 -8.5 35t-23.5 31t-36 24.5t-45 15.5q1 -8 1 -10q0 -30 -14 -57.5t-37.5 -48t-57 -34.5t-70.5 -18q49 -50 131 -50q25 0 49 6l20 4l17 -11q21 -14 43 -21q-1 2 -2.5 4.5l-3 5
t-2.5 4.5l-15 32z" />
    <glyph glyph-name="star-half" unicode="&#xf089;" horiz-adv-x="576" 
d="M288 63v-55l-131 -68q-17 -9 -33 2.5t-13 31.5l25 145l-106 103q-14 14 -8 33t26 22l146 21l65 132q9 18 29 18v-68l-62 -126l-139 -20l100 -98l-23 -139z" />
    <glyph glyph-name="lemon" unicode="&#xf094;" 
d="M484 420q21 -21 26.5 -48t-7.5 -49q-4 -8 -4.5 -22t1 -31t3 -38t-1 -45.5t-10 -49.5t-25.5 -54t-45 -56q-31 -31 -65 -50t-62 -24.5t-56 -7.5t-48 2t-38.5 3t-26.5 -5q-22 -13 -49 -7.5t-48 26.5t-26.5 48t7.5 49q4 8 5 26.5t-3 38.5t-2 48t7 56t24.5 62t50.5 65t65 50
t62 24.5t56 7.5t48 -2t38.5 -3t26.5 5q38 22 81 -6q9 -6 16 -13zM462 347q10 18 -12 39.5t-39 11.5q-17 -11 -42.5 -11.5t-52.5 2.5t-57 1.5t-65 -17.5t-69 -50t-50 -69t-17.5 -65t1.5 -57t2.5 -52.5t-11.5 -42.5q-10 -18 12 -39.5t39 -11.5q17 11 42.5 11.5t52.5 -2.5
t57 -1.5t65 17.5t69 50t50 69t17.5 65t-1.5 57t-2.5 52.5t11.5 42.5zM292 338q0 -2 -0.5 -5t-1.5 -5t-2.5 -4t-3.5 -3.5t-4.5 -3t-5.5 -1.5q-41 -5 -89 -53t-53 -89q-1 -9 -7.5 -14t-15 -4t-13.5 7.5t-4 14.5q7 55 65 113t113 65q5 1 10 -1.5t8 -6.5t4 -10z" />
    <glyph glyph-name="credit-card" unicode="&#xf09d;" horiz-adv-x="576" 
d="M528 416q10 0 19 -4t15 -10t10 -15t4 -19v-352q0 -20 -14 -34t-34 -14h-480q-20 0 -34 14t-14 34v352q0 13 6.5 24t17.5 17.5t24 6.5h480zM54 368q-6 0 -6 -6v-42h480v42q0 6 -6 6h-468zM522 16q6 0 6 6v170h-480v-170q0 -6 6 -6h468zM192 116v-40q0 -12 -12 -12h-72
q-12 0 -12 12v40q0 12 12 12h72q12 0 12 -12zM384 116v-40q0 -12 -12 -12h-136q-12 0 -12 12v40q0 12 12 12h136q12 0 12 -12z" />
    <glyph glyph-name="hdd" unicode="&#xf0a0;" horiz-adv-x="576" 
d="M567 212q3 -4 5 -8.5t3 -9t1 -9.5v-137q0 -20 -14 -34t-34 -14h-480q-20 0 -34 14t-14 34v137q0 15 9 27l105 151q1 3 3.5 5l5 4t5.5 4t6 3.5t6.5 2.5t6.5 1.5t6 0.5h270q10 0 21.5 -6t17.5 -15zM153 336l-78 -112h426l-78 112h-270zM528 48v128h-480v-128h480zM496 112
q0 -13 -9.5 -22.5t-22.5 -9.5t-22.5 9.5t-9.5 22.5t9.5 22.5t22.5 9.5t22.5 -9.5t9.5 -22.5zM400 112q0 -13 -9.5 -22.5t-22.5 -9.5t-22.5 9.5t-9.5 22.5t9.5 22.5t22.5 9.5t22.5 -9.5t9.5 -22.5z" />
    <glyph glyph-name="hand-point-right" unicode="&#xf0a4;" 
d="M429 310q34 0 58.5 -24.5t24.5 -58.5t-24.5 -58.5t-58.5 -24.5h-36q0 -2 -1 -5l-2 -6t-2.5 -6l-2.5 -5q1 -7 0.5 -13.5t-1.5 -13t-3 -13t-5 -12.5t-7 -11q-1 -40 -27.5 -65.5t-72.5 -25.5h-21q-34 0 -75.5 20t-51.5 20h-3q-4 -4 -10 -6t-12 -2h-64q-13 0 -22.5 8.5
t-9.5 20.5v230q0 5 1.5 9.5t4.5 8t7 6t9 4t10 1.5h64q13 0 22 -8h3q9 0 30 24v0q5 6 9 10.5t8.5 10.5t8.5 12t9 16.5t9 18t10 16.5t12 14.5t15.5 9.5t20.5 4q28 0 49 -11t32 -29.5t11 -42.5q0 -3 -0.5 -5.5t-0.5 -5.5t-0.5 -6t-0.5 -6h86zM429 192q14 0 24.5 10.5t10.5 24.5
q0 5 -1.5 9.5t-3.5 8t-5.5 7t-7.5 6t-8.5 3.5t-8.5 1h-159q0 7 13.5 29t13.5 42q0 35 -44 35q-4 0 -9 -8.5t-13 -24t-13 -23.5q-11 -18 -31 -40q-32 -36 -59 -40v-176q17 -2 38 -12t42 -19t40 -9h21q61 0 51 61q12 7 16.5 23t-3.5 31q14 13 14.5 32t-9.5 29h91zM88 64
q0 10 -7 17t-17 7t-17 -7t-7 -17t7 -17t17 -7t17 7t7 17z" />
    <glyph glyph-name="hand-point-left" unicode="&#xf0a5;" 
d="M0 227q0 22 11.5 41.5t30.5 30.5t41 11h86q0 4 -0.5 7.5t-1 7.5t-0.5 8q0 36 25 59.5t67 23.5q13 0 23.5 -5t18 -14.5t12.5 -18t11.5 -21.5t10.5 -20q9 -14 26 -33v0q21 -24 30 -24h3q9 8 22 8h64q13 0 22.5 -8.5t9.5 -20.5v-230q0 -12 -9.5 -20.5t-22.5 -8.5h-64
q-13 0 -22 8h-3q-10 0 -51.5 -20t-75.5 -20h-21q-46 0 -72.5 25.5t-27.5 65.5q-20 29 -16 63q-6 10 -8 22h-36q-34 0 -58.5 24.5t-24.5 58.5zM48 227q0 -9 5 -17t13 -13t17 -5h91q-10 -10 -9.5 -29t14.5 -32q-8 -15 -3.5 -31t16.5 -23q-10 -61 51 -61h21q24 0 62 19t58 21
v176q-27 4 -59 40q-20 22 -31 40q-4 6 -8.5 14.5t-7.5 15.5t-6.5 13t-6.5 9.5t-6 3.5q-44 0 -44 -35q0 -20 13.5 -42t13.5 -29h-159q-7 0 -13.5 -2.5t-11 -7.5t-7.5 -11.5t-3 -13.5zM448 88q-10 0 -17 -7t-7 -17t7 -17t17 -7t17 7t7 17t-7 17t-17 7z" />
    <glyph glyph-name="hand-point-up" unicode="&#xf0a6;" horiz-adv-x="448" 
d="M106 365q0 34 24.5 58.5t58.5 24.5t58.5 -24.5t24.5 -58.5v-36q12 -2 22 -8q16 2 32.5 -2t30.5 -14q40 -1 65.5 -27.5t25.5 -72.5v-21q0 -34 -20 -75.5t-20 -51.5v-3q8 -9 8 -22v-64q0 -13 -8.5 -22.5t-20.5 -9.5h-230q-12 0 -20.5 9.5t-8.5 22.5v64q0 3 0.5 6t1.5 6
t2.5 5.5t3.5 4.5v3q0 9 -24 30v0q-9 8 -17 14.5t-16 11.5q-6 4 -24 13t-27.5 15t-18.5 19t-9 29q0 42 23.5 67t59.5 25q3 0 7 -0.5t8.5 -1t7.5 -0.5v86zM224 365q0 14 -10.5 24.5t-24.5 10.5q-5 0 -9.5 -1.5t-8 -3.5t-7 -5.5t-6 -7.5t-3.5 -8.5t-1 -8.5v-159q-7 0 -17.5 7
t-24.5 13.5t-29 6.5q-35 0 -35 -44q0 -3 3.5 -6t9.5 -6.5t13 -6.5t15.5 -7.5t14.5 -8.5q18 -11 40 -31q36 -32 40 -59h176q2 20 21 58t19 62v21q0 61 -61 51q-7 12 -23 16.5t-31 -3.5q-13 14 -32 14.5t-29 -9.5v91zM352 24q-10 0 -17 -7t-7 -17t7 -17t17 -7t17 7t7 17t-7 17
t-17 7z" />
    <glyph glyph-name="hand-point-down" unicode="&#xf0a7;" horiz-adv-x="448" 
d="M189 -64q-34 0 -58.5 24.5t-24.5 58.5v86q-6 -1 -11.5 -1.5t-11.5 -0.5q-36 0 -59.5 25t-23.5 67q0 13 5 23.5t14.5 18t18 12.5t21.5 11.5t20 10.5q14 9 33 26v0q6 5 9.5 8.5l6.5 6.5t4.5 6l2.5 5t1 4v3q-8 9 -8 22v64q0 13 8.5 22.5t20.5 9.5h230q12 0 20.5 -9.5
t8.5 -22.5v-64q0 -13 -8 -22v-3q0 -10 20 -51.5t20 -75.5v-21q0 -46 -25.5 -72.5t-65.5 -27.5q-29 -20 -63 -16q-4 -2 -10.5 -4.5t-11.5 -3.5v-36q0 -34 -24.5 -58.5t-58.5 -24.5zM189 -16q9 0 17 5t13 13t5 17v91q10 -10 29 -9.5t32 14.5q10 -5 21 -4.5t20 5.5t13 12
q61 -10 61 51v21q0 24 -19 62t-21 58h-176q-4 -27 -40 -59q-5 -5 -9.5 -8.5t-9.5 -7.5t-10.5 -8t-10.5 -7t-12 -7t-13 -6.5t-12 -6t-10 -6t-6.5 -5t-2.5 -4.5q0 -44 35 -44q20 0 42 13.5t29 13.5v-159q0 -14 10.5 -24.5t24.5 -10.5zM328 384q0 -10 7 -17t17 -7t17 7t7 17
t-7 17t-17 7t-17 -7t-7 -17z" />
    <glyph glyph-name="copy" unicode="&#xf0c5;" horiz-adv-x="448" 
d="M434 382q4 -4 7 -10t5 -12t2 -12v-268q0 -13 -6.5 -24t-17.5 -17.5t-24 -6.5h-80v-48q0 -13 -6.5 -24t-17.5 -17.5t-24 -6.5h-224q-20 0 -34 14t-14 34v320q0 13 6.5 24t17.5 17.5t24 6.5h80v48q0 13 6.5 24t17.5 17.5t24 6.5h172q6 0 12 -2t12 -5t10 -7zM266 -16
q6 0 6 6v42h-96q-20 0 -34 14t-14 34v224h-74q-6 0 -6 -6v-308q0 -6 6 -6h212zM394 80q6 0 6 6v202h-88q-10 0 -17 7t-7 17v88h-106q-6 0 -6 -6v-308q0 -6 6 -6h212zM400 336v10q0 2 -2 4l-48 48q-2 2 -4 2h-10v-64h64z" />
    <glyph glyph-name="save" unicode="&#xf0c7;" horiz-adv-x="448" 
d="M434 318q6 -6 10 -16t4 -18v-268q0 -13 -6.5 -24t-17.5 -17.5t-24 -6.5h-352q-20 0 -34 14t-14 34v352q0 13 6.5 24t17.5 17.5t24 6.5h268q8 0 18 -4t16 -10zM272 368h-128v-80h128v80zM394 16q6 0 6 6v260l-2 4l-78 78v-100q0 -10 -7 -17t-17 -7h-176q-10 0 -17 7t-7 17
v104h-42q-6 0 -6 -6v-340q0 -6 6 -6h340zM224 216q36 0 62 -26t26 -62t-26 -62t-62 -26t-62 26t-26 62t26 62t62 26zM224 88q17 0 28.5 11.5t11.5 28.5t-11.5 28.5t-28.5 11.5t-28.5 -11.5t-11.5 -28.5t11.5 -28.5t28.5 -11.5z" />
    <glyph glyph-name="square" unicode="&#xf0c8;" horiz-adv-x="448" 
d="M400 416q20 0 34 -14t14 -34v-352q0 -20 -14 -34t-34 -14h-352q-20 0 -34 14t-14 34v352q0 20 14 34t34 14h352zM394 16q6 0 6 6v340q0 6 -6 6h-340q-6 0 -6 -6v-340q0 -6 6 -6h340z" />
    <glyph glyph-name="envelope" unicode="&#xf0e0;" 
d="M464 384q20 0 34 -14t14 -34v-288q0 -20 -14 -34t-34 -14h-416q-20 0 -34 14t-14 34v288q0 20 14 34t34 14h416zM464 336h-416v-41q35 -28 135 -106q0 -1 14 -12.5t21 -16t18.5 -10.5t19.5 -6t19.5 6t18.5 10.5t21 16t14 12.5q100 78 135 106v41zM48 48h416v186
q-35 -28 -105 -83q-2 -1 -14.5 -12t-19.5 -16t-20 -12.5t-25 -11t-24 -3.5t-24.5 3.5t-25 11.5t-19.5 13t-19.5 15.5t-14.5 11.5q-70 55 -105 83v-186z" />
    <glyph glyph-name="lightbulb" unicode="&#xf0eb;" horiz-adv-x="352" 
d="M176 368q7 0 11.5 -4.5t4.5 -11.5t-4.5 -11.5t-11.5 -4.5q-26 0 -45 -19t-19 -45q0 -7 -4.5 -11.5t-11.5 -4.5t-11.5 4.5t-4.5 11.5q0 40 28 68t68 28zM96 -11v43h160v-43q0 -5 -3 -9l-24 -37q-5 -7 -14 -7h-78q-9 0 -14 7l-24 37q-3 4 -3 9zM176 448q73 0 124.5 -51.5
t51.5 -124.5q0 -66 -44 -116q-14 -16 -29.5 -42.5t-22.5 -49.5h-48v3.5t0.5 3.5l1 4t0.5 3q19 61 62 110q32 36 32 84q0 53 -37.5 90.5t-90.5 37.5q-52 0 -90 -37t-38 -91q0 -48 32 -84q43 -49 62 -110q2 -7 2 -14h-48q-7 23 -22.5 49.5t-29.5 42.5q-44 50 -44 116
q0 71 50.5 123.5t125.5 52.5z" />
    <glyph glyph-name="bell" unicode="&#xf0f3;" horiz-adv-x="448" 
d="M439 86q5 -5 7 -10.5t2 -11.5q0 -13 -9 -22.5t-23 -9.5h-384q-9 0 -16.5 4.5t-11.5 12t-4 15.5q0 12 9 22q1 1 3 4q15 15 23.5 27t18.5 45.5t10 77.5q0 58 36 101t92 54v21q0 13 9.5 22.5t22.5 9.5t22.5 -9.5t9.5 -22.5v-21q27 -6 51 -20t41 -34t26.5 -46t9.5 -55
q0 -44 10 -77.5t18.5 -45.5t23.5 -27q2 -3 3 -4zM68 80h312q-19 26 -31.5 64t-12.5 95v1q0 46 -33 79t-79 33q-30 0 -56 -15t-41 -41t-15 -56v-1q0 -100 -44 -159zM224 -64q-26 0 -45 18.5t-19 45.5h128q0 -27 -19 -45.5t-45 -18.5z" />
    <glyph glyph-name="hospital" unicode="&#xf0f8;" horiz-adv-x="448" 
d="M128 204v40q0 12 12 12h40q12 0 12 -12v-40q0 -12 -12 -12h-40q-12 0 -12 12zM268 192q-12 0 -12 12v40q0 12 12 12h40q12 0 12 -12v-40q0 -12 -12 -12h-40zM192 108q0 -12 -12 -12h-40q-12 0 -12 12v40q0 12 12 12h40q12 0 12 -12v-40zM268 96q-12 0 -12 12v40
q0 12 12 12h40q12 0 12 -12v-40q0 -12 -12 -12h-40zM448 -28v-36h-448v36q0 12 12 12h20v379q0 9 7 15t17 6h88v40q0 10 7 17t17 7h112q7 0 12.5 -3t8.5 -8.5t3 -12.5v-40h88q10 0 17 -6t7 -15v-379h20q12 0 12 -12zM80 -15h112v67q0 12 12 12h40q12 0 12 -12v-67h112v351
h-64v-24q0 -10 -7 -17t-17 -7h-112q-10 0 -17 7t-7 17v24h-64v-351zM266 384h-26v26q0 6 -6 6h-20q-6 0 -6 -6v-26h-26q-6 0 -6 -6v-20q0 -6 6 -6h26v-26q0 -6 6 -6h20q6 0 6 6v26h26q6 0 6 6v20q0 6 -6 6z" />
    <glyph glyph-name="plus-square" unicode="&#xf0fe;" horiz-adv-x="448" 
d="M352 208v-32q0 -12 -12 -12h-88v-88q0 -12 -12 -12h-32q-12 0 -12 12v88h-88q-12 0 -12 12v32q0 12 12 12h88v88q0 12 12 12h32q12 0 12 -12v-88h88q12 0 12 -12zM448 368v-352q0 -20 -14 -34t-34 -14h-352q-20 0 -34 14t-14 34v352q0 20 14 34t34 14h352q20 0 34 -14
t14 -34zM400 22v340q0 6 -6 6h-340q-6 0 -6 -6v-340q0 -6 6 -6h340q6 0 6 6z" />
    <glyph glyph-name="circle" unicode="&#xf111;" 
d="M256 440q103 0 175.5 -72.5t72.5 -175.5t-72.5 -175.5t-175.5 -72.5t-175.5 72.5t-72.5 175.5t72.5 175.5t175.5 72.5zM256 -8q83 0 141.5 58.5t58.5 141.5t-58.5 141.5t-141.5 58.5t-141.5 -58.5t-58.5 -141.5t58.5 -141.5t141.5 -58.5z" />
    <glyph glyph-name="smile" unicode="&#xf118;" horiz-adv-x="496" 
d="M248 440q103 0 175.5 -72.5t72.5 -175.5t-72.5 -175.5t-175.5 -72.5t-175.5 72.5t-72.5 175.5t72.5 175.5t175.5 72.5zM248 -8q83 0 141.5 58.5t58.5 141.5t-58.5 141.5t-141.5 58.5t-141.5 -58.5t-58.5 -141.5t58.5 -141.5t141.5 -58.5zM168 208q-13 0 -22.5 9.5
t-9.5 22.5t9.5 22.5t22.5 9.5t22.5 -9.5t9.5 -22.5t-9.5 -22.5t-22.5 -9.5zM328 208q-13 0 -22.5 9.5t-9.5 22.5t9.5 22.5t22.5 9.5t22.5 -9.5t9.5 -22.5t-9.5 -22.5t-22.5 -9.5zM332 135q4 5 10 7.5t12.5 1.5t11.5 -6q7 -6 8 -16t-5 -17q-47 -57 -121 -57q-35 0 -66.5 15
t-54.5 42q-6 7 -5 17t8.5 16.5t17.5 5.5t16 -9q33 -39 84 -39t84 39z" />
    <glyph glyph-name="frown" unicode="&#xf119;" horiz-adv-x="496" 
d="M248 440q103 0 175.5 -72.5t72.5 -175.5t-72.5 -175.5t-175.5 -72.5t-175.5 72.5t-72.5 175.5t72.5 175.5t175.5 72.5zM248 -8q83 0 141.5 58.5t58.5 141.5t-58.5 141.5t-141.5 58.5t-141.5 -58.5t-58.5 -141.5t58.5 -141.5t141.5 -58.5zM168 208q-13 0 -22.5 9.5
t-9.5 22.5t9.5 22.5t22.5 9.5t22.5 -9.5t9.5 -22.5t-9.5 -22.5t-22.5 -9.5zM328 272q13 0 22.5 -9.5t9.5 -22.5t-9.5 -22.5t-22.5 -9.5t-22.5 9.5t-9.5 22.5t9.5 22.5t22.5 9.5zM248 144q63 0 104 -49q2 -2 3 -4.5t1.5 -5t0.5 -5t-0.5 -5t-1.5 -5t-2.5 -5t-3.5 -3.5
q-8 -7 -18 -6t-16 8.5t-14 13.5t-16.5 10t-17.5 6t-19 2q-41 0 -67 -31q-3 -4 -7.5 -6t-9 -2.5t-9 1t-8.5 4.5q-7 6 -8 16t5 17q41 49 104 49z" />
    <glyph glyph-name="meh" unicode="&#xf11a;" horiz-adv-x="496" 
d="M248 440q103 0 175.5 -72.5t72.5 -175.5t-72.5 -175.5t-175.5 -72.5t-175.5 72.5t-72.5 175.5t72.5 175.5t175.5 72.5zM248 -8q83 0 141.5 58.5t58.5 141.5t-58.5 141.5t-141.5 58.5t-141.5 -58.5t-58.5 -141.5t58.5 -141.5t141.5 -58.5zM168 208q-13 0 -22.5 9.5
t-9.5 22.5t9.5 22.5t22.5 9.5t22.5 -9.5t9.5 -22.5t-9.5 -22.5t-22.5 -9.5zM328 272q13 0 22.5 -9.5t9.5 -22.5t-9.5 -22.5t-22.5 -9.5t-22.5 9.5t-9.5 22.5t9.5 22.5t22.5 9.5zM336 128q10 0 17 -7t7 -17t-7 -17t-17 -7h-176q-10 0 -17 7t-7 17t7 17t17 7h176z" />
    <glyph glyph-name="keyboard" unicode="&#xf11c;" horiz-adv-x="576" 
d="M528 384q20 0 34 -14t14 -34v-288q0 -20 -14 -34t-34 -14h-480q-20 0 -34 14t-14 34v288q0 20 14 34t34 14h480zM536 48v288q0 8 -8 8h-480q-8 0 -8 -8v-288q0 -8 8 -8h480q8 0 8 8zM170 178q0 -12 -12 -12h-28q-12 0 -12 12v28q0 12 12 12h28q12 0 12 -12v-28zM266 178
q0 -12 -12 -12h-28q-12 0 -12 12v28q0 12 12 12h28q12 0 12 -12v-28zM362 178q0 -12 -12 -12h-28q-12 0 -12 12v28q0 12 12 12h28q12 0 12 -12v-28zM458 178q0 -12 -12 -12h-28q-12 0 -12 12v28q0 12 12 12h28q12 0 12 -12v-28zM122 96q0 -12 -12 -12h-28q-12 0 -12 12v28
q0 12 12 12h28q12 0 12 -12v-28zM506 96q0 -12 -12 -12h-28q-12 0 -12 12v28q0 12 12 12h28q12 0 12 -12v-28zM122 260q0 -12 -12 -12h-28q-12 0 -12 12v28q0 12 12 12h28q12 0 12 -12v-28zM218 260q0 -12 -12 -12h-28q-12 0 -12 12v28q0 12 12 12h28q12 0 12 -12v-28z
M314 260q0 -12 -12 -12h-28q-12 0 -12 12v28q0 12 12 12h28q12 0 12 -12v-28zM410 260q0 -12 -12 -12h-28q-12 0 -12 12v28q0 12 12 12h28q12 0 12 -12v-28zM506 260q0 -12 -12 -12h-28q-12 0 -12 12v28q0 12 12 12h28q12 0 12 -12v-28zM408 102q0 -12 -12 -12h-216
q-12 0 -12 12v16q0 12 12 12h216q12 0 12 -12v-16z" />
    <glyph glyph-name="calendar" unicode="&#xf133;" horiz-adv-x="448" 
d="M400 384q20 0 34 -14t14 -34v-352q0 -20 -14 -34t-34 -14h-352q-20 0 -34 14t-14 34v352q0 20 14 34t34 14h48v52q0 12 12 12h40q12 0 12 -12v-52h128v52q0 12 12 12h40q12 0 12 -12v-52h48zM394 -16q6 0 6 6v298h-352v-298q0 -6 6 -6h340z" />
    <glyph glyph-name="play-circle" unicode="&#xf144;" 
d="M372 210q4 -2 6.5 -5.5t4 -7.5t1.5 -8t-1.5 -8t-4 -7.5t-6.5 -5.5l-176 -101q-12 -7 -24 0t-12 21v208q0 14 12 21t24 0zM504 192q0 -103 -72.5 -175.5t-175.5 -72.5t-175.5 72.5t-72.5 175.5t72.5 175.5t175.5 72.5t175.5 -72.5t72.5 -175.5zM56 192q0 -83 58.5 -141.5
t141.5 -58.5t141.5 58.5t58.5 141.5t-58.5 141.5t-141.5 58.5t-141.5 -58.5t-58.5 -141.5z" />
    <glyph glyph-name="minus-square" unicode="&#xf146;" horiz-adv-x="448" 
d="M108 164q-12 0 -12 12v32q0 12 12 12h232q12 0 12 -12v-32q0 -12 -12 -12h-232zM448 368v-352q0 -20 -14 -34t-34 -14h-352q-20 0 -34 14t-14 34v352q0 20 14 34t34 14h352q20 0 34 -14t14 -34zM400 22v340q0 6 -6 6h-340q-6 0 -6 -6v-340q0 -6 6 -6h340q6 0 6 6z" />
    <glyph glyph-name="check-square" unicode="&#xf14a;" horiz-adv-x="448" 
d="M400 416q20 0 34 -14t14 -34v-352q0 -20 -14 -34t-34 -14h-352q-20 0 -34 14t-14 34v352q0 20 14 34t34 14h352zM400 16v352h-352v-352h352zM364 258l-172 -171q-2 -2 -4.5 -3t-4.5 -1t-4.5 1t-3.5 3l-91 91q-9 9 0 17l23 23q8 8 17 0l59 -61l142 140q8 9 17 0l22 -22
q3 -3 3.5 -6t-0.5 -6t-3 -5z" />
    <glyph glyph-name="share-square" unicode="&#xf14d;" horiz-adv-x="576" 
d="M562 290q9 -9 12.5 -21.5t0 -25t-12.5 -21.5l-144 -144q-11 -11 -25.5 -13.5t-27 3t-21 17t-8.5 27.5v54q-37 -3 -58 -8.5t-28 -16.5t-6 -22t8 -32q11 -32 -16 -52.5t-55 -3.5q-20 13 -35.5 28t-26.5 33.5t-17 39.5t-6 44q0 59 36 99q15 17 36 29.5t47 20.5q48 15 121 18
v57q0 32 29.5 44t52.5 -10zM384 112l144 144l-144 144v-104q-33 0 -57 -1.5t-54 -5.5t-51 -12.5t-40 -21t-28.5 -33t-9.5 -46.5q0 -65 62 -104q-7 22 -9 40.5t2 32.5t12 25t21 18.5t28.5 12.5t36 8.5t41 4.5t46.5 2v-104zM409 28q4 1 10.5 3.5t10.5 5.5q6 4 12 0.5t6 -10.5
v-43q0 -13 -6.5 -24t-17.5 -17.5t-24 -6.5h-352q-20 0 -34 14t-14 34v352q0 13 6.5 24t17.5 17.5t24 6.5h132q5 0 8.5 -3.5t3.5 -8.5v-4q0 -9 -8 -12q-20 -8 -38 -18q-3 -2 -6 -2h-86q-6 0 -6 -6v-340q0 -6 6 -6h340q6 0 6 6v26q0 9 9 12z" />
    <glyph glyph-name="compass" unicode="&#xf14e;" horiz-adv-x="496" 
d="M348 318q12 6 22 -4t4 -22l-66 -144q-5 -11 -16 -16l-144 -66q-12 -6 -22 4t-4 22l66 144q5 11 16 16zM271 169q4 5 6.5 11t2.5 12t-2.5 12t-6.5 11q-10 9 -23 9t-22.5 -9.5t-9.5 -22.5t9.5 -22.5t22.5 -9.5t23 9zM248 440q103 0 175.5 -72.5t72.5 -175.5t-72.5 -175.5
t-175.5 -72.5t-175.5 72.5t-72.5 175.5t72.5 175.5t175.5 72.5zM248 -8q83 0 141.5 58.5t58.5 141.5t-58.5 141.5t-141.5 58.5t-141.5 -58.5t-58.5 -141.5t58.5 -141.5t141.5 -58.5z" />
    <glyph glyph-name="caret-square-down" unicode="&#xf150;" horiz-adv-x="448" 
d="M125 240h198q8 0 11 -7.5t-3 -12.5l-98 -99q-9 -8 -17 0l-99 99q-4 4 -4 8.5t3.5 8t8.5 3.5zM448 368v-352q0 -20 -14 -34t-34 -14h-352q-20 0 -34 14t-14 34v352q0 20 14 34t34 14h352q20 0 34 -14t14 -34zM400 22v340q0 6 -6 6h-340q-6 0 -6 -6v-340q0 -6 6 -6h340
q6 0 6 6z" />
    <glyph glyph-name="caret-square-up" unicode="&#xf151;" horiz-adv-x="448" 
d="M323 144h-198q-8 0 -11 7.5t3 12.5l98 99q9 8 17 0l99 -99q10 -9 0 -17q-4 -3 -8 -3zM448 368v-352q0 -20 -14 -34t-34 -14h-352q-20 0 -34 14t-14 34v352q0 20 14 34t34 14h352q20 0 34 -14t14 -34zM400 22v340q0 6 -6 6h-340q-6 0 -6 -6v-340q0 -6 6 -6h340q6 0 6 6z
" />
    <glyph glyph-name="caret-square-right" unicode="&#xf152;" horiz-adv-x="448" 
d="M176 93v198q0 8 7.5 11t12.5 -3l99 -98q8 -9 0 -17l-99 -99q-4 -4 -8.5 -4t-8 3.5t-3.5 8.5zM448 368v-352q0 -20 -14 -34t-34 -14h-352q-20 0 -34 14t-14 34v352q0 20 14 34t34 14h352q20 0 34 -14t14 -34zM400 22v340q0 6 -6 6h-340q-6 0 -6 -6v-340q0 -6 6 -6h340
q6 0 6 6z" />
    <glyph glyph-name="file" unicode="&#xf15b;" horiz-adv-x="384" 
d="M370 350q14 -14 14 -34v-332q0 -20 -14 -34t-34 -14h-288q-20 0 -34 14t-14 34v416q0 20 14 34t34 14h204q20 0 34 -14zM332 320l-76 76v-76h76zM48 -16h288v288h-104q-10 0 -17 7t-7 17v104h-160v-416z" />
    <glyph glyph-name="file-alt" unicode="&#xf15c;" horiz-adv-x="384" 
d="M288 200v-28q0 -12 -12 -12h-168q-12 0 -12 12v28q0 12 12 12h168q12 0 12 -12zM276 128q12 0 12 -12v-28q0 -12 -12 -12h-168q-12 0 -12 12v28q0 12 12 12h168zM384 316v-332q0 -20 -14 -34t-34 -14h-288q-20 0 -34 14t-14 34v416q0 20 14 34t34 14h204q20 0 34 -14
l84 -84q14 -14 14 -34zM256 396v-76h76zM336 -16v288h-104q-10 0 -17 7t-7 17v104h-160v-416h288z" />
    <glyph glyph-name="thumbs-up" unicode="&#xf164;" 
d="M466 161q3 -11 2.5 -22t-3.5 -21t-8 -20q2 -17 -2.5 -35t-14.5 -32q-1 -44 -29 -69.5t-84 -25.5h-11h-11q-45 0 -79.5 10t-58 20t-40.5 10q-3 -10 -11.5 -17t-19.5 -7h-64q-13 0 -22.5 9.5t-9.5 22.5v240q0 13 9.5 22.5t22.5 9.5h99q10 9 34 40.5t35 42.5q3 4 9 33
t20.5 52.5t41.5 23.5q45 0 70.5 -26t25.5 -79q0 -23 -9 -46h36q36 0 61 -26t25 -60q0 -26 -14 -50zM405 107q15 15 15.5 35.5t-10.5 30.5q7 0 14.5 12t7.5 26t-11 26t-27 12h-104q0 18 14.5 46.5t14.5 47.5q0 13 -1 20t-5 17t-14.5 15t-27.5 5q-7 -8 -11 -25.5t-9 -37
t-18 -32.5q-8 -8 -28 -35t-37 -44.5t-29 -17.5h-11v-186q25 0 79.5 -19t92.5 -19h37q64 0 54 66q12 7 17 24t-3 33zM88 16q0 10 -7 17t-17 7t-17 -7t-7 -17t7 -17t17 -7t17 7t7 17z" />
    <glyph glyph-name="thumbs-down" unicode="&#xf165;" 
d="M466 223q14 -24 14 -50q0 -34 -25 -60t-61 -26h-36q9 -23 9 -46q0 -53 -25.5 -79t-70.5 -26q-27 0 -41.5 23.5t-20.5 52.5t-9 33q-11 11 -35 42.5t-34 40.5h-7q-10 -16 -28 -16h-64q-13 0 -22.5 9.5t-9.5 22.5v240q0 9 4.5 16t11.5 11.5t16 4.5h64q6 0 11.5 -2t9.5 -6h11
q11 0 24 4t26.5 10t30.5 12t42 10t54 4h11h11q38 0 63.5 -12.5t37 -33.5t12.5 -49q22 -31 17 -67q16 -30 9 -63zM64 152q10 0 17 7t7 17t-7 17t-17 7t-17 -7t-7 -17t7 -17t17 -7zM394 135q16 0 27 12t11 26t-7.5 26t-14.5 12q11 10 10.5 30.5t-15.5 35.5q8 16 3 33t-17 24
q10 66 -54 66h-37q-31 0 -62.5 -9.5t-59.5 -19t-50 -9.5v-186h11q12 0 29 -17.5t37 -44.5t28 -35q16 -16 23 -51.5t15 -43.5q17 0 27.5 5t14.5 15t5 17t1 20q0 19 -14.5 47.5t-14.5 46.5h104z" />
    <glyph glyph-name="sun" unicode="&#xf185;" 
d="M494 226q18 -12 18 -33.5t-18 -33.5l-60 -41l14 -71q4 -21 -11 -36t-36 -11l-71 14l-41 -60q-12 -18 -33.5 -18t-33.5 18l-40 60l-71 -14q-21 -4 -36 11t-11 37l14 71l-60 40q-18 12 -18 33.5t18 33.5l60 41l-14 71q-4 21 11 36t36 11l71 -14l40 60q12 17 34 17t33 -17
l41 -60l71 14q21 4 36 -11t11 -36l-14 -71zM381 140l77 53l-77 52l18 91l-91 -18l-52 77l-52 -77l-91 18l18 -91l-77 -52l77 -52l-18 -92l91 18l52 -77l52 77l91 -18zM256 296q43 0 73.5 -30.5t30.5 -73.5t-30.5 -73.5t-73.5 -30.5t-73.5 30.5t-30.5 73.5t30.5 73.5
t73.5 30.5zM256 136q23 0 39.5 16.5t16.5 39.5t-16.5 39.5t-39.5 16.5t-39.5 -16.5t-16.5 -39.5t16.5 -39.5t39.5 -16.5z" />
    <glyph glyph-name="moon" unicode="&#xf186;" 
d="M279 -64q-106 0 -181 75t-75 181t75 181t181 75q24 0 47 -4q21 -4 32 -21.5t6.5 -37.5t-23.5 -30q-31 -18 -49.5 -49t-18.5 -67q0 -41 22.5 -74t59 -49t77.5 -8q33 6 50 -22.5t-4 -54.5q-36 -45 -88 -70t-111 -25zM279 400q-86 0 -147 -61t-61 -147t61 -147t147 -61
q48 0 90.5 20.5t71.5 56.5q-84 -16 -150 38.5t-66 139.5q0 50 25 92t67 66q-19 3 -38 3z" />
    <glyph glyph-name="caret-square-left" unicode="&#xf191;" horiz-adv-x="448" 
d="M272 291v-198q0 -8 -7.5 -11t-12.5 3l-99 98q-8 9 0 17l99 99q9 10 17 0q3 -4 3 -8zM448 368v-352q0 -20 -14 -34t-34 -14h-352q-20 0 -34 14t-14 34v352q0 20 14 34t34 14h352q20 0 34 -14t14 -34zM400 22v340q0 6 -6 6h-340q-6 0 -6 -6v-340q0 -6 6 -6h340q6 0 6 6z
" />
    <glyph glyph-name="dot-circle" unicode="&#xf192;" 
d="M256 392q-83 0 -141.5 -58.5t-58.5 -141.5t58.5 -141.5t141.5 -58.5t141.5 58.5t58.5 141.5t-58.5 141.5t-141.5 58.5zM256 440q103 0 175.5 -72.5t72.5 -175.5t-72.5 -175.5t-175.5 -72.5t-175.5 72.5t-72.5 175.5t72.5 175.5t175.5 72.5zM256 272q33 0 56.5 -23.5
t23.5 -56.5t-23.5 -56.5t-56.5 -23.5t-56.5 23.5t-23.5 56.5t23.5 56.5t56.5 23.5z" />
    <glyph glyph-name="building" unicode="&#xf1ad;" horiz-adv-x="448" 
d="M128 300v40q0 12 12 12h40q12 0 12 -12v-40q0 -12 -12 -12h-40q-12 0 -12 12zM268 288q-12 0 -12 12v40q0 12 12 12h40q12 0 12 -12v-40q0 -12 -12 -12h-40zM140 192q-12 0 -12 12v40q0 12 12 12h40q12 0 12 -12v-40q0 -12 -12 -12h-40zM268 192q-12 0 -12 12v40
q0 12 12 12h40q12 0 12 -12v-40q0 -12 -12 -12h-40zM192 108q0 -12 -12 -12h-40q-12 0 -12 12v40q0 12 12 12h40q12 0 12 -12v-40zM268 96q-12 0 -12 12v40q0 12 12 12h40q12 0 12 -12v-40q0 -12 -12 -12h-40zM448 -28v-36h-448v36q0 12 12 12h20v440q0 10 7 17t17 7h336
q10 0 17 -7t7 -17v-440h20q12 0 12 -12zM80 -15h112v67q0 12 12 12h40q12 0 12 -12v-67h112v414l-288 1v-415z" />
    <glyph glyph-name="file-pdf" unicode="&#xf1c1;" horiz-adv-x="384" 
d="M370 350q14 -14 14 -34v-332q0 -20 -14 -34t-34 -14h-288q-20 0 -34 14t-14 34v416q0 20 14 34t34 14h204q20 0 34 -14zM332 320l-76 76v-76h76zM48 -16h288v288h-104q-10 0 -17 7t-7 17v104h-160v-416zM298 128q10 -8 5 -23.5t-22 -15.5q-25 0 -56 17q-6 -1 -13 -2.5
t-14.5 -4t-13 -4.5t-14.5 -5t-14 -4q-39 -68 -66 -51q-12 7 -10 20q5 22 51 46q16 28 36 74q-13 48 -7 67q3 15 21 14t21 -20q2 -18 1 -27.5t-6 -28.5q12 -31 37 -46q50 6 64 -6zM100 50l1.5 0.5t4 3l6 6t8.5 10t11 15.5q-27 -25 -31 -35zM182 240q-2 0 -2 -7t0.5 -17
t2.5 -16q4 6 4 23t-5 17zM157 104q3 1 15.5 6t21.5 8t18 5q-18 13 -30 36q-6 -16 -12 -29.5t-13 -25.5zM289 109q5 3 -5.5 6t-31.5 2q14 -6 23.5 -8t11.5 -1z" />
    <glyph glyph-name="file-word" unicode="&#xf1c2;" horiz-adv-x="384" 
d="M370 350q14 -14 14 -34v-332q0 -20 -14 -34t-34 -14h-288q-20 0 -34 14t-14 34v416q0 20 14 34t34 14h204q20 0 34 -14zM332 320l-76 76v-76h76zM48 -16h288v288h-104q-10 0 -17 7t-7 17v104h-160v-416zM268 192h16q6 0 9.5 -4.5t2.5 -10.5q-10 -38 -35 -136
q-2 -9 -12 -9h-24q-10 0 -12 9q-7 29 -18 72l-3 17q0 -8 -3 -17l-18 -72q-2 -9 -11 -9h-25q-3 0 -5.5 1t-4 3.5t-2.5 4.5q-3 12 -16 65.5t-17 70.5q-1 4 0 7.5t4.5 5.5t6.5 2h17q10 0 12 -10q19 -96 19 -99q0 -1 1 -4q0 6 24 104q3 9 12 9h13q10 0 12 -9q23 -97 24 -100v-3
v-1q1 6 21 103q2 10 12 10z" />
    <glyph glyph-name="file-excel" unicode="&#xf1c3;" horiz-adv-x="384" 
d="M370 350q14 -14 14 -34v-332q0 -20 -14 -34t-34 -14h-288q-20 0 -34 14t-14 34v416q0 20 14 34t34 14h204q20 0 34 -14zM332 320l-76 76v-76h76zM48 -16h288v288h-104q-10 0 -17 7t-7 17v104h-160v-416zM260 224q7 0 10.5 -6t-0.5 -12q-35 -61 -46 -78l46 -78
q4 -6 0.5 -12t-10.5 -6h-29q-1 0 -3 0.5t-3 1t-2.5 2t-1.5 2.5q-2 3 -29 58q-12 -27 -29 -58q-1 -2 -2.5 -3t-3.5 -2t-4 -1h-29q-7 0 -10.5 6t0.5 12l46 78l-46 78q-4 6 -0.5 12t10.5 6h29q7 0 11 -6q9 -18 28 -58q9 22 29 58q3 6 10 6h29z" />
    <glyph glyph-name="file-powerpoint" unicode="&#xf1c4;" horiz-adv-x="384" 
d="M370 350q14 -14 14 -34v-332q0 -20 -14 -34t-34 -14h-288q-20 0 -34 14t-14 34v416q0 20 14 34t34 14h204q20 0 34 -14zM332 320l-76 76v-76h76zM48 -16h288v288h-104q-10 0 -17 7t-7 17v104h-160v-416zM120 44v168q0 12 12 12h69q28 0 45.5 -18.5t17.5 -47.5
q0 -12 -2 -22t-7 -16.5t-9.5 -12t-12.5 -8.5t-13.5 -4.5t-14.5 -2.5t-13 -1h-13h-11v-47q0 -3 -1.5 -6t-4 -4.5t-6.5 -1.5h-24q-5 0 -8.5 3.5t-3.5 8.5zM168 131h24q5 0 9.5 2t8.5 6t5.5 11.5t0 14.5t-5.5 11q-7 7 -18 7h-24v-52z" />
    <glyph glyph-name="file-image" unicode="&#xf1c5;" horiz-adv-x="384" 
d="M370 350q14 -14 14 -34v-332q0 -20 -14 -34t-34 -14h-288q-20 0 -34 14t-14 34v416q0 20 14 34t34 14h204q20 0 34 -14zM332 320l-76 76v-76h76zM48 -16h288v288h-104q-10 0 -17 7t-7 17v104h-160v-416zM80 32v64l40 40q8 8 16 0l40 -40l88 88q8 8 16 0l24 -24v-128h-224
zM128 272q20 0 34 -14t14 -34t-14 -34t-34 -14t-34 14t-14 34t14 34t34 14z" />
    <glyph glyph-name="file-archive" unicode="&#xf1c6;" horiz-adv-x="384" 
d="M128 288h32v-32h-32v32zM192 384v-32h-32v32h32zM128 352h32v-32h-32v32zM192 320v-32h-32v32h32zM370 350q14 -14 14 -34v-332q0 -20 -14 -34t-34 -14h-288q-20 0 -34 14t-14 34v416q0 20 14 34t34 14h204q20 0 34 -14zM256 396v-76h76zM336 -16v288h-104q-10 0 -17 7
t-7 17v104h-48v-16h-32v16h-80v-416h288zM194 182l17 -87q5 -25 -10.5 -44t-40.5 -19t-40.5 19.5t-10.5 43.5l19 97v32h32v-32h22q10 0 12 -10zM160 58q9 0 16.5 3.5t12 10t4.5 13.5q0 11 -9.5 19t-23.5 8q-9 0 -16 -3.5t-11.5 -10t-4.5 -13.5q0 -11 9.5 -19t22.5 -8z
M192 256v-32h-32v32h32z" />
    <glyph glyph-name="file-audio" unicode="&#xf1c7;" horiz-adv-x="384" 
d="M370 350q4 -4 7 -10t5 -12t2 -12v-332q0 -13 -6.5 -24t-17.5 -17.5t-24 -6.5h-288q-20 0 -34 14t-14 34v416q0 13 6.5 24t17.5 17.5t24 6.5h204q6 0 12 -2t12 -5t10 -7zM332 320l-76 76v-76h76zM48 -16h288v288h-104q-10 0 -17 7t-7 17v104h-160v-416zM192 60
q0 -8 -7.5 -11t-12.5 3l-36 36h-28q-5 0 -8.5 3.5t-3.5 8.5v56q0 4 3.5 8t8.5 4h28l36 36q4 4 8.5 4t8 -3.5t3.5 -8.5v-136zM233 107q7 7 7 17t-7 17q-10 10 -5.5 23.5t16.5 16.5t24 -7q6 -7 11 -15t7 -17t2 -18t-2 -18t-7 -17t-11 -15q-11 -11 -24 -7t-16.5 16t5.5 24z" />
    <glyph glyph-name="file-video" unicode="&#xf1c8;" horiz-adv-x="384" 
d="M370 350q4 -4 7 -10t5 -12t2 -12v-332q0 -13 -6.5 -24t-17.5 -17.5t-24 -6.5h-288q-20 0 -34 14t-14 34v416q0 13 6.5 24t17.5 17.5t24 6.5h204q6 0 12 -2t12 -5t10 -7zM332 320l-76 76v-76h76zM48 -16h288v288h-104q-10 0 -17 7t-7 17v104h-160v-416zM277 195q5 5 11 5
t11 -4.5t5 -11.5v-112q0 -11 -10 -15t-17 4l-53 52v-37q0 -5 -2.5 -10t-7.5 -7.5t-10 -2.5h-104q-8 0 -14 6t-6 14v104q0 3 1 6t3 5.5t4.5 4.5t5.5 3t6 1h104q8 0 14 -6t6 -14v-37z" />
    <glyph glyph-name="file-code" unicode="&#xf1c9;" horiz-adv-x="384" 
d="M150 99q3 -3 3 -6.5t-3 -6.5l-17 -18q-1 -1 -3 -2t-4 -1q-3 0 -6 3l-57 54q-2 1 -2.5 2.5t-0.5 3.5t0.5 3.5t2.5 2.5l57 55q7 6 13 -1l17 -18v-1q6 -6 0 -12l-33 -29zM370 350q14 -14 14 -34v-332q0 -20 -14 -34t-34 -14h-288q-20 0 -34 14t-14 34v416q0 20 14 34t34 14
h204q20 0 34 -14zM256 396v-76h76zM336 -16v288h-104q-10 0 -17 7t-7 17v104h-160v-416h288zM210 234l24 -7q9 -2 6 -11l-55 -188q-2 -9 -11 -6l-24 7q-9 2 -6 11l55 188q2 8 11 6zM234 157q-6 6 0 13l17 18q6 7 13 1l57 -55q7 -6 0 -12l-57 -54q-3 -3 -6.5 -3t-6.5 3
l-17 19q-6 6 0 12l33 29z" />
    <glyph glyph-name="life-ring" unicode="&#xf1cd;" 
d="M256 -56q-103 0 -175.5 72.5t-72.5 175.5t72.5 175.5t175.5 72.5t175.5 -72.5t72.5 -175.5t-72.5 -175.5t-175.5 -72.5zM153 21q31 -19 67 -25.5t72 0t67 25.5l-53 53q-50 -21 -100 0zM336 192q0 33 -23.5 56.5t-56.5 23.5t-56.5 -23.5t-23.5 -56.5t23.5 -56.5
t56.5 -23.5t56.5 23.5t23.5 56.5zM427 89q29 47 29 103t-29 103l-53 -53q21 -50 0 -100zM359 363q-47 29 -103 29t-103 -29l53 -53q50 21 100 0zM85 295q-29 -47 -29 -103t29 -103l53 53q-21 50 0 100z" />
    <glyph glyph-name="paper-plane" unicode="&#xf1d8;" 
d="M440 442q26 14 51 -2.5t21 -46.5l-60 -388q-4 -23 -24 -34q-11 -6 -23 -6q-10 0 -19 3l-112 47l-43 -60q-21 -28 -54 -16q-32 12 -33 45v84l-114 48q-28 11 -30 41t24 45zM192 -16l37 50l-37 15v-65zM405 13l59 387l-416 -240l108 -45l211 185q11 9 21.5 -0.5t2.5 -20.5
l-140 -203z" />
    <glyph glyph-name="futbol" unicode="&#xf1e3;" horiz-adv-x="496" 
d="M484 269q32 -98 -15 -189.5t-144 -123.5q-38 -12 -77 -12q-79 0 -145 47t-91 124q-32 98 15 189.5t144 123.5q38 12 77 12q52 0 99.5 -21t83.5 -60t53 -90zM409 75q12 16 17 26q21 42 22 89l-39 37l-71 -22l-25 -76l44 -61zM409 310q-37 52 -98 72l-47 -26v-74l64 -47
l71 22zM185 382q-60 -20 -98 -72l10 -53l71 -22l64 47v74zM139 68l43 62l-24 74l-71 23l-39 -37q1 -63 38 -115zM187 2q58 -19 122 0l22 48l-44 61h-79l-43 -61z" />
    <glyph glyph-name="newspaper" unicode="&#xf1ea;" horiz-adv-x="576" 
d="M552 384q10 0 17 -7t7 -17v-336q0 -10 -7 -17t-17 -7h-496q-23 0 -39.5 16.5t-16.5 39.5v272q0 10 7 17t17 7h43q2 7 6.5 13t10.5 10t13 6.5t15 2.5h440zM48 56q0 -8 8 -8t8 8v248h-16v-248zM528 48v288h-416v-280q0 -4 -1 -8h417zM172 168q-12 0 -12 12v96q0 12 12 12
h136q12 0 12 -12v-96q0 -12 -12 -12h-136zM200 248v-40h80v40h-80zM160 108v24q0 12 12 12h136q12 0 12 -12v-24q0 -12 -12 -12h-136q-12 0 -12 12zM352 108v24q0 12 12 12h104q12 0 12 -12v-24q0 -12 -12 -12h-104q-12 0 -12 12zM352 252v24q0 12 12 12h104q12 0 12 -12
v-24q0 -12 -12 -12h-104q-12 0 -12 12zM352 180v24q0 12 12 12h104q12 0 12 -12v-24q0 -12 -12 -12h-104q-12 0 -12 12z" />
    <glyph glyph-name="bell-slash" unicode="&#xf1f6;" horiz-adv-x="640" 
d="M634 -23q12 -10 2 -23l-10 -12q-10 -12 -22 -2l-598 467q-13 10 -2 23l10 12q10 12 22 2zM164 80h182l62 -48h-280q-14 0 -23 9.5t-9 22.5q0 6 2 11.5t7 10.5l3 3q14 15 22 26t18 41.5t11 69.5l46 -35q-9 -68 -41 -111zM320 352q-34 0 -63 -19l-38 29q31 25 69 33v21
q0 13 9.5 22.5t22.5 9.5t22.5 -9.5t9.5 -22.5v-21q37 -7 66 -29t45.5 -55t16.5 -71q0 -55 14 -93l-59 47q-3 23 -3 45v1q0 46 -33 79t-79 33zM320 -64q-26 0 -45 18.5t-19 45.5h128q0 -27 -19 -45.5t-45 -18.5z" />
    <glyph glyph-name="copyright" unicode="&#xf1f9;" 
d="M256 440q103 0 175.5 -72.5t72.5 -175.5t-72.5 -175.5t-175.5 -72.5t-175.5 72.5t-72.5 175.5t72.5 175.5t175.5 72.5zM256 -8q83 0 141.5 58.5t58.5 141.5t-58.5 141.5t-141.5 58.5t-141.5 -58.5t-58.5 -141.5t58.5 -141.5t141.5 -58.5zM363 93q-41 -41 -104 -41
q-40 0 -72.5 18.5t-50 50.5t-17.5 72q0 39 18 71t50 50.5t72 18.5q59 0 97 -35q4 -4 4 -9l-2 -6l-18 -29q-7 -11 -18 -2q-28 22 -61 22q-36 0 -57 -23t-21 -57q0 -22 8.5 -40.5t27 -31t42.5 -12.5q36 0 66 27q2 3 5.5 3.5t7 -0.5t5.5 -4l20 -27q2 -4 2 -8t-4 -8z" />
    <glyph glyph-name="closed-captioning" unicode="&#xf20a;" 
d="M464 384q20 0 34 -14t14 -34v-288q0 -20 -14 -34t-34 -14h-416q-20 0 -34 14t-14 34v288q0 20 14 34t34 14h416zM458 48q6 0 6 6v276q0 6 -6 6h-404q-6 0 -6 -6v-276q0 -6 6 -6h404zM247 134q3 -4 -1 -8q-26 -28 -67 -30.5t-73 24.5t-32 74q0 46 32.5 72t73.5 24.5
t66 -26.5q3 -3 1 -6l-17 -30q-2 -3 -4.5 -3.5t-5.5 1.5q-30 24 -62 13.5t-32 -44.5q0 -37 30.5 -48.5t61.5 15.5q5 5 9 -1zM437 134q3 -4 0 -8q-27 -28 -68 -30.5t-73 24.5t-32 74q0 46 32.5 72t73.5 24.5t66 -26.5q3 -3 2 -6l-18 -30q-4 -6 -9 -2q-31 24 -63 13.5
t-32 -44.5q0 -37 31 -48.5t61 15.5q6 5 10 -1z" />
    <glyph glyph-name="object-group" unicode="&#xf247;" 
d="M500 320h-12v-256h12q12 0 12 -12v-72q0 -12 -12 -12h-72q-12 0 -12 12v12h-320v-12q0 -12 -12 -12h-72q-12 0 -12 12v72q0 12 12 12h12v256h-12q-12 0 -12 12v72q0 12 12 12h72q12 0 12 -12v-12h320v12q0 12 12 12h72q12 0 12 -12v-72q0 -12 -12 -12zM448 384v-32h32v32
h-32zM32 384v-32h32v32h-32zM64 0v32h-32v-32h32zM480 0v32h-32v-32h32zM440 64v256h-12q-12 0 -12 12v12h-320v-12q0 -12 -12 -12h-12v-256h12q12 0 12 -12v-12h320v12q0 12 12 12h12zM404 256q12 0 12 -12v-168q0 -12 -12 -12h-200q-12 0 -12 12v52h-84q-12 0 -12 12v168
q0 12 12 12h200q12 0 12 -12v-52h84zM136 280v-112h144v112h-144zM376 104v112h-56v-76q0 -12 -12 -12h-76v-24h144z" />
    <glyph glyph-name="object-ungroup" unicode="&#xf248;" horiz-adv-x="576" 
d="M564 224h-12v-160h12q12 0 12 -12v-72q0 -12 -12 -12h-72q-12 0 -12 12v12h-224v-12q0 -12 -12 -12h-72q-12 0 -12 12v72q0 12 12 12h12v24h-88v-12q0 -12 -12 -12h-72q-12 0 -12 12v72q0 12 12 12h12v160h-12q-12 0 -12 12v72q0 12 12 12h72q12 0 12 -12v-12h224v12
q0 12 12 12h72q12 0 12 -12v-72q0 -12 -12 -12h-12v-24h88v12q0 12 12 12h72q12 0 12 -12v-72q0 -12 -12 -12zM352 384v-32h32v32h-32zM352 128v-32h32v32h-32zM64 96v32h-32v-32h32zM64 352v32h-32v-32h32zM96 136h224v12q0 12 12 12h12v160h-12q-12 0 -12 12v12h-224v-12
q0 -12 -12 -12h-12v-160h12q12 0 12 -12v-12zM224 0v32h-32v-32h32zM504 64v160h-12q-12 0 -12 12v12h-88v-88h12q12 0 12 -12v-72q0 -12 -12 -12h-72q-12 0 -12 12v12h-88v-24h12q12 0 12 -12v-12h224v12q0 12 12 12h12zM544 0v32h-32v-32h32zM544 256v32h-32v-32h32z" />
    <glyph glyph-name="sticky-note" unicode="&#xf249;" horiz-adv-x="448" 
d="M448 100q0 -8 -4 -18t-10 -16l-84 -84q-3 -3 -7 -5.5t-8.5 -4.5t-9.5 -3t-9 -1h-268q-20 0 -34 14t-14 34v352q0 13 6.5 24t17.5 17.5t24 6.5h352q20 0 34 -14t14 -34v-268zM320 20l76 76h-76v-76zM400 368h-352v-352h224v104q0 5 2 9.5t5 7.5t7.5 5t9.5 2h104v224z" />
    <glyph glyph-name="clone" unicode="&#xf24d;" 
d="M464 448q20 0 34 -14t14 -34v-320q0 -20 -14 -34t-34 -14h-48v-48q0 -20 -14 -34t-34 -14h-320q-20 0 -34 14t-14 34v320q0 20 14 34t34 14h48v48q0 20 14 34t34 14h320zM362 -16q6 0 6 6v42h-224q-20 0 -34 14t-14 34v224h-42q-6 0 -6 -6v-308q0 -6 6 -6h308zM458 80
q6 0 6 6v308q0 6 -6 6h-308q-6 0 -6 -6v-308q0 -6 6 -6h308z" />
    <glyph glyph-name="hourglass" unicode="&#xf254;" horiz-adv-x="384" 
d="M368 400q0 -63 -25 -120.5t-72 -87.5q47 -30 72 -87.5t25 -120.5h4q12 0 12 -12v-24q0 -12 -12 -12h-360q-12 0 -12 12v24q0 12 12 12h4q0 63 25 120.5t72 87.5q-47 30 -72 87.5t-25 120.5h-4q-12 0 -12 12v24q0 12 12 12h360q12 0 12 -12v-24q0 -12 -12 -12h-4zM64 400
q0 -76 37.5 -130t90.5 -54t90.5 54t37.5 130h-256zM320 -16q0 76 -37.5 130t-90.5 54t-90.5 -54t-37.5 -130h256z" />
    <glyph glyph-name="hand-rock" unicode="&#xf255;" 
d="M409 369q36 16 69.5 -6t33.5 -62v-114q0 -12 -2.5 -23t-6.5 -22l-43 -100q-4 -9 -4 -42q0 -9 -4.5 -16t-11.5 -11.5t-16 -4.5h-252q-13 0 -22.5 9.5t-9.5 22.5v14q0 16 -3 19l-98 85q-39 34 -39 86v57q0 35 28 57t63 14q2 41 38.5 61t72.5 0q8 9 19 14.5t23 7.5t23.5 0
t22.5 -7.5t20 -14.5q24 14 53 7.5t46 -31.5zM464 187v114q0 16 -13 22.5t-26 0t-13 -21.5q0 -7 -4.5 -11.5t-11.5 -4.5h-7q-4 0 -8 2t-6 5.5t-2 8.5v26q0 17 -13 23.5t-26 0t-13 -22.5v-27q0 -7 -4.5 -11.5t-11.5 -4.5h-7q-4 0 -8 2t-6 5.5t-2 8.5v40q0 16 -13 23t-26 0.5
t-13 -22.5v-41q0 -7 -4.5 -11.5t-11.5 -4.5h-7q-7 0 -11.5 4.5t-4.5 11.5v26q0 17 -13 23.5t-26 0t-13 -22.5v-116q0 -7 -4.5 -11.5t-11.5 -4.5q-2 0 -5.5 1t-5.5 3l-7 6q-5 4 -5 12v41q0 16 -13 22.5t-26 0t-13 -21.5v-57q0 -10 2.5 -19t8 -17t12.5 -14l97 -85
q20 -17 20 -43v-10h220v7q0 10 2 19.5t6 18.5l43 100q5 12 5 26z" />
    <glyph glyph-name="hand-paper" unicode="&#xf256;" horiz-adv-x="448" 
d="M373 335q29 5 52 -15.5t23 -50.5v-132q0 -9 -1.5 -22.5t-3.5 -22.5l-30 -131q-3 -11 -11.5 -18t-20.5 -7h-222q-5 0 -10 2t-9.5 5t-7.5 6l-119 169q-16 22 -12 49.5t26 43.5q29 21 62 9v126q0 33 25.5 53t57.5 12q18 36 58 37t60 -36q20 5 39.5 -2.5t31.5 -24.5t12 -39
v-11zM400 137v132q0 17 -16 19t-20 -14l-1 -6v-76q0 -7 -4.5 -11.5t-11.5 -4.5h-6q-7 0 -11.5 4.5t-4.5 11.5v154q0 12 -9.5 17.5t-18.5 0.5t-9 -17v-155q0 -7 -4.5 -11.5t-11.5 -4.5h-7q-6 0 -11 4.5t-5 11.5v188q0 12 -9 17.5t-18 0.5t-9 -17v-189q0 -7 -5 -11.5t-11 -4.5
h-7q-7 0 -11.5 4.5t-4.5 11.5v153q0 17 -16 20q-16 2 -20 -13l-1 -6v-206q0 -12 -11 -15.5t-18 5.5l-27 38q-7 10 -17.5 8t-14 -11t2.5 -19l115 -162h202l27 119q4 17 4 34z" />
    <glyph glyph-name="hand-scissors" unicode="&#xf257;" 
d="M256 -32q-34 0 -54 27t-10 59q-16 10 -24.5 27.5t-5.5 37.5h-88q-31 0 -52.5 21.5t-21.5 51.5t21.5 51.5t52.5 21.5l94 -9l-79 19q-29 11 -41 39t-1 56t39 40t57 1l145 -56q43 53 92 25l98 -55q6 -3 11.5 -8t9.5 -10.5t7 -12t4.5 -13t1.5 -14.5v-205q0 -15 -6.5 -29
t-18.5 -23t-27 -13l-119 -27q-7 -2 -15 -2h-70zM256 16h70q2 0 4 1l119 27q15 3 15 18v205q0 11 -9 16l-98 55q-7 3 -14 2t-11 -6l-22 -27q-5 -6 -12 -6q-3 0 -6 1l-166 64q-10 3 -18 1t-12.5 -8.5t-5.5 -14t3 -14.5t13 -11l156 -59q10 -4 10 -15v-12q0 -6 -4.5 -11
t-11.5 -5h-182q-12 0 -19 -8t-7 -17t7 -17t19 -8h182q7 0 11.5 -5t4.5 -11v-7q0 -7 -4.5 -11.5t-11.5 -4.5h-28q-12 0 -17 -9t0 -18.5t17 -9.5h28q3 0 6 -1t5 -3t3.5 -5t1.5 -7v-6q0 -7 -4.5 -11.5t-11.5 -4.5q-12 0 -17 -9.5t0 -18.5t17 -9z" />
    <glyph glyph-name="hand-lizard" unicode="&#xf258;" horiz-adv-x="576" 
d="M557 157q19 -29 19 -65v-124h-224v72l-100 38q-4 2 -8 2h-132q-23 0 -39.5 16.5t-16.5 39.5q0 36 26 62t62 26h114l18 48h-196q-33 0 -56.5 23.5t-23.5 56.5v8q0 23 16.5 39.5t39.5 16.5h294q18 0 34 -8.5t26 -24.5zM528 16v76q0 21 -12 39l-146 226q-7 11 -20 11h-294
q-8 0 -8 -8v-8q0 -13 9.5 -22.5t22.5 -9.5h213q19 0 30 -15.5t4 -33.5l-24 -64q-6 -14 -18 -22.5t-27 -8.5h-114q-17 0 -28.5 -11.5t-11.5 -28.5q0 -8 8 -8h132q13 0 26 -5l99 -39q10 -3 16.5 -10t10.5 -16t4 -18v-24h128z" />
    <glyph glyph-name="hand-spock" unicode="&#xf259;" 
d="M21 66q-20 19 -21 47t18 48q18 19 44.5 21t47.5 -15l-31 136q-7 31 12.5 56t51.5 26q1 22 15.5 39t36.5 22q13 4 26 1t24 -9.5t19 -17.5t11 -24l22 -132l17 105q4 18 16.5 31t29.5 17.5t35 0.5q20 -5 33 -20t17 -34q32 0 52.5 -25.5t12.5 -57.5l-32 -133q0 -3 -0.5 -6
t-0.5 -6v-37q0 -17 -5 -33l-32 -107q-3 -10 -11.5 -16.5t-18.5 -6.5h-238q-13 0 -22 9zM53 128q-5 -6 -5 -13.5t6 -13.5l124 -117h220l28 96q3 9 3 19v37q0 12 3 23l31 134q3 11 -5 18t-18.5 4.5t-12.5 -14.5l-27 -113q-3 -12 -16 -12h-10q-7 0 -12 6t-3 14l38 152
q3 12 -5 19t-18.5 4.5t-13.5 -13.5l-42 -170q-3 -12 -16 -12h-13q-5 0 -9.5 3.5t-6.5 8.5l-45 197q-3 12 -13 14.5t-18.5 -4.5t-5.5 -18l42 -181q1 -8 -3.5 -14t-12.5 -6h-8q-3 0 -5.5 1t-4.5 2.5t-3.5 4t-2.5 4.5l-30 134q-2 5 -5 8.5t-6.5 5t-7.5 1.5t-8 -2t-6.5 -4.5
t-4 -7t-0.5 -9.5l35 -150v-4v-69q0 -11 -9.5 -15t-17.5 3l-53 50q-4 3 -9 4.5t-9.5 0t-8.5 -5.5z" />
    <glyph glyph-name="hand-pointer" unicode="&#xf25a;" horiz-adv-x="448" 
d="M358 269q16 6 32 3.5t29 -11t21 -23.5t8 -32v-84q0 -8 -2 -15l-27 -119q-5 -23 -23.5 -37.5t-41.5 -14.5h-178q-34 0 -54 28l-109 154q-11 15 -13 32.5t5.5 33.5t21.5 27q29 21 62 9v161q0 14 5.5 26t14 21t21 14.5t25.5 5.5q28 0 47.5 -19.5t19.5 -47.5v-74q10 2 20 0
t19.5 -7t16.5 -12q14 6 28.5 6t28.5 -6.5t23 -18.5zM81 168q-7 10 -17.5 8t-14 -11t2.5 -19l109 -154q6 -8 15 -8h178q15 0 18 15l27 119q1 2 1 4v84q0 12 -9 17t-18.5 0t-9.5 -17q0 -7 -4.5 -11.5t-11.5 -4.5h-6q-5 0 -8.5 2t-5.5 6t-2 8v21q0 12 -9.5 17t-18.5 0t-9 -17
v-21q0 -4 -2 -8t-6 -6t-8 -2h-7q-4 0 -8 2t-6 6t-2 8v35q0 12 -9 17t-18 0t-9 -17v-35q0 -4 -2.5 -8t-6 -6t-7.5 -2h-7q-7 0 -11.5 4.5t-4.5 11.5v175q0 9 -6 14t-12.5 5t-12.5 -5t-6 -14v-241q0 -12 -11 -15.5t-18 5.5zM176 48v96q0 4 2 8t5 6t7 2h6q6 0 10 -4.5t4 -11.5
v-96q0 -7 -4 -11.5t-10 -4.5h-6q-6 0 -10 4.5t-4 11.5zM252 48v96q0 4 1.5 8t5 6t7.5 2h6q5 0 9.5 -4.5t4.5 -11.5v-96q0 -7 -4.5 -11.5t-9.5 -4.5h-6q-6 0 -10 4.5t-4 11.5zM327 48v96q0 16 14 16h6q14 0 14 -16v-96q0 -16 -14 -16h-6q-14 0 -14 16z" />
    <glyph glyph-name="hand-peace" unicode="&#xf25b;" horiz-adv-x="448" 
d="M362 256q32 10 59 -10t27 -54v-70q0 -3 -0.5 -7.5t-1.5 -7.5l-27 -119q-5 -23 -23.5 -37.5t-41.5 -14.5h-205q-18 0 -33.5 9t-24.5 25l-55 98q-28 49 25 92l-56 145q-11 29 1 57t40 39t56 -1t39 -41l19 -79l-9 94q0 20 9.5 37t26.5 27t37 10q30 0 51.5 -21.5t21.5 -52.5
v-88q20 3 37.5 -5.5t27.5 -24.5zM400 122v70q0 12 -9 17t-18.5 0t-9.5 -17q0 -7 -4.5 -11.5t-11.5 -4.5h-6q-3 0 -5.5 1t-4.5 2.5t-3.5 3.5t-2 4t-0.5 5v28q0 12 -9.5 17t-18.5 0t-9 -17v-28q0 -7 -4.5 -11.5t-11.5 -4.5h-7q-6 0 -11 4.5t-5 11.5v182q0 12 -8 19t-17 7
t-17 -7t-8 -19v-182q0 -7 -5 -11.5t-11 -4.5h-12q-4 0 -8.5 3t-6.5 7l-59 156q-6 15 -20 16.5t-23.5 -9.5t-3.5 -27l64 -166q0 -1 0.5 -3t0.5 -3q0 -3 -1.5 -6.5t-4.5 -5.5l-27 -22q-12 -10 -4 -25l55 -98q5 -9 16 -9h205q15 0 18 15l27 119z" />
    <glyph glyph-name="registered" unicode="&#xf25d;" 
d="M256 440q103 0 175.5 -72.5t72.5 -175.5t-72.5 -175.5t-175.5 -72.5t-175.5 72.5t-72.5 175.5t72.5 175.5t175.5 72.5zM256 -8q83 0 141.5 58.5t58.5 141.5t-58.5 141.5t-141.5 58.5t-141.5 -58.5t-58.5 -141.5t58.5 -141.5t141.5 -58.5zM366 74q2 -4 1.5 -8t-4 -7
t-7.5 -3h-43q-7 0 -10 6l-48 90h-32v-84q0 -5 -3.5 -8.5t-8.5 -3.5h-39q-4 0 -8 3.5t-4 8.5v248q0 5 4 8.5t8 3.5h79q102 0 102 -85q0 -51 -40 -73v-1q2 -3 25 -43l4.5 -9t5 -8.5t6 -10.5t6 -11.5t6.5 -12.5zM257 208q32 0 32 33v6.5t-1 6.5t-2.5 5.5t-3.5 4.5t-5 3.5
t-7 2.5t-9 1.5t-11 0.5h-27v-64h34z" />
    <glyph glyph-name="calendar-plus" unicode="&#xf271;" horiz-adv-x="448" 
d="M336 156v-24q0 -12 -12 -12h-76v-76q0 -12 -12 -12h-24q-12 0 -12 12v76h-76q-12 0 -12 12v24q0 12 12 12h76v76q0 12 12 12h24q12 0 12 -12v-76h76q12 0 12 -12zM448 336v-352q0 -20 -14 -34t-34 -14h-352q-20 0 -34 14t-14 34v352q0 20 14 34t34 14h48v52q0 12 12 12
h40q12 0 12 -12v-52h128v52q0 12 12 12h40q12 0 12 -12v-52h48q20 0 34 -14t14 -34zM400 -10v298h-352v-298q0 -6 6 -6h340q6 0 6 6z" />
    <glyph glyph-name="calendar-minus" unicode="&#xf272;" horiz-adv-x="448" 
d="M124 120q-12 0 -12 12v24q0 12 12 12h200q12 0 12 -12v-24q0 -12 -12 -12h-200zM448 336v-352q0 -20 -14 -34t-34 -14h-352q-20 0 -34 14t-14 34v352q0 20 14 34t34 14h48v52q0 12 12 12h40q12 0 12 -12v-52h128v52q0 12 12 12h40q12 0 12 -12v-52h48q20 0 34 -14t14 -34
zM400 -10v298h-352v-298q0 -6 6 -6h340q6 0 6 6z" />
    <glyph glyph-name="calendar-times" unicode="&#xf273;" horiz-adv-x="448" 
d="M312 73l-17 -17q-9 -8 -17 0l-54 54l-54 -54q-8 -8 -17 0l-17 17q-8 9 0 17l54 54l-54 54q-8 8 0 17l17 17q9 8 17 0l54 -54l54 54q8 8 17 0l17 -17q8 -9 0 -17l-54 -54l54 -54q8 -8 0 -17zM448 336v-352q0 -20 -14 -34t-34 -14h-352q-20 0 -34 14t-14 34v352q0 20 14 34
t34 14h48v52q0 12 12 12h40q12 0 12 -12v-52h128v52q0 12 12 12h40q12 0 12 -12v-52h48q20 0 34 -14t14 -34zM400 -10v298h-352v-298q0 -6 6 -6h340q6 0 6 6z" />
    <glyph glyph-name="calendar-check" unicode="&#xf274;" horiz-adv-x="448" 
d="M400 384q20 0 34 -14t14 -34v-352q0 -20 -14 -34t-34 -14h-352q-20 0 -34 14t-14 34v352q0 20 14 34t34 14h48v52q0 12 12 12h40q12 0 12 -12v-52h128v52q0 12 12 12h40q12 0 12 -12v-52h48zM394 -16q6 0 6 6v298h-352v-298q0 -6 6 -6h340zM341 185l-142 -142
q-9 -8 -17 1l-75 75q-4 4 -4 9t4 8l23 23q8 8 17 0l44 -45l111 110q3 4 8 4t9 -4l22 -22q9 -9 0 -17z" />
    <glyph glyph-name="map" unicode="&#xf279;" horiz-adv-x="576" 
d="M560 416q6 0 11 -4.5t5 -11.5v-346q0 -6 -2.5 -12t-7.5 -11t-10 -7l-152 -53q-4 -1 -10 -2t-10 -1q-3 0 -6.5 0.5l-7 1t-6.5 1.5l-172 61l-170 -63l-6 -1q-6 0 -11 4.5t-5 11.5v346q0 9 6 18t14 12l152 53q10 3 20 3q4 0 10 -1t10 -2l172 -61l170 63q3 1 6 1zM224 358
v-286l128 -46v286zM48 30l127 47h1v286l-128 -44v-289zM528 65v289l-127 -47h-1v-286z" />
    <glyph glyph-name="comment-alt" unicode="&#xf27a;" 
d="M448 448q26 0 45 -19t19 -45v-288q0 -26 -19 -45t-45 -19h-144l-125 -94q-1 -1 -3 -1.5t-4 -0.5q-5 0 -8.5 3.5t-3.5 8.5v84h-96q-26 0 -45 19t-19 45v288q0 26 19 45t45 19h384zM464 96v288q0 7 -4.5 11.5t-11.5 4.5h-384q-7 0 -11.5 -4.5t-4.5 -11.5v-288
q0 -7 4.5 -11.5t11.5 -4.5h144v-60l67 50l13 10h160q13 3 16 16z" />
    <glyph glyph-name="pause-circle" unicode="&#xf28b;" 
d="M256 440q103 0 175.5 -72.5t72.5 -175.5t-72.5 -175.5t-175.5 -72.5t-175.5 72.5t-72.5 175.5t72.5 175.5t175.5 72.5zM256 -8q83 0 141.5 58.5t58.5 141.5t-58.5 141.5t-141.5 58.5t-141.5 -58.5t-58.5 -141.5t58.5 -141.5t141.5 -58.5zM352 272v-160q0 -7 -4.5 -11.5
t-11.5 -4.5h-48q-7 0 -11.5 4.5t-4.5 11.5v160q0 7 4.5 11.5t11.5 4.5h48q7 0 11.5 -4.5t4.5 -11.5zM240 272v-160q0 -7 -4.5 -11.5t-11.5 -4.5h-48q-7 0 -11.5 4.5t-4.5 11.5v160q0 7 4.5 11.5t11.5 4.5h48q7 0 11.5 -4.5t4.5 -11.5z" />
    <glyph glyph-name="stop-circle" unicode="&#xf28d;" 
d="M504 192q0 -103 -72.5 -175.5t-175.5 -72.5t-175.5 72.5t-72.5 175.5t72.5 175.5t175.5 72.5t175.5 -72.5t72.5 -175.5zM56 192q0 -83 58.5 -141.5t141.5 -58.5t141.5 58.5t58.5 141.5t-58.5 141.5t-141.5 58.5t-141.5 -58.5t-58.5 -141.5zM352 272v-160q0 -7 -4.5 -11.5
t-11.5 -4.5h-160q-7 0 -11.5 4.5t-4.5 11.5v160q0 7 4.5 11.5t11.5 4.5h160q7 0 11.5 -4.5t4.5 -11.5z" />
    <glyph glyph-name="handshake" unicode="&#xf2b5;" horiz-adv-x="640" 
d="M519 320h121v-256h-64q-6 0 -12 2.5t-10.5 7t-7 10.5t-2.5 12h-58q-3 -13 -11 -23l-26 -32q-12 -15 -29.5 -19.5t-34.5 2.5q-19 -24 -49 -24q-22 0 -41 16q-23 -17 -52.5 -16t-52.5 20l-85 76h-9q0 -6 -2.5 -12t-7 -10.5t-10.5 -7t-12 -2.5h-64v256h118l48 48
q7 8 17.5 12t21.5 4h227q23 0 40 -16zM48 96q4 0 8 2.5t6 6t2 7.5q0 7 -4.5 11.5t-11.5 4.5t-11.5 -4.5t-4.5 -11t4.5 -11.5t11.5 -5zM438 103q5 7 -1 12l-108 87l-9 -7q-18 -17 -40.5 -18.5t-37 6t-23.5 16.5q-13 15 -17.5 33.5t1.5 36.5t20 32l39 35h-57q-1 0 -3 -1l-2 -1
l-62 -62h-42v-128h28l97 -88q6 -5 13.5 -7t15 -1t14.5 4.5t12 10.5l16 19l37 -32q9 -7 18 3l30 36l24 -19q6 -5 11 1zM544 144v128h-45l-61 62q-3 2 -6 2h-84q-15 0 -27 -11l-65 -60q-8 -6 -8 -16t7 -18q4 -4 10.5 -5.5t12.5 0t11 5.5l55 51q12 11 23 -1l11 -12
q11 -12 -1 -22l-13 -12l103 -83l8 -8h69zM592 96q4 0 8 2.5t6 6t2 7.5q0 7 -4.5 11.5t-11.5 4.5t-11.5 -4.5t-4.5 -11t4.5 -11.5t11.5 -5z" />
    <glyph glyph-name="envelope-open" unicode="&#xf2b6;" 
d="M495 283q17 -14 17 -37v-262q0 -13 -6.5 -24t-17.5 -17.5t-24 -6.5h-416q-20 0 -34 14t-14 34v263q0 6 2.5 13t6.5 13.5t9 10.5q40 33 135 108q3 3 12 10.5l15 12.5t16.5 12t19 11t19.5 7t21 3t21 -3t20 -7t19 -11.5l16 -12t15 -12t12 -10.5q100 -79 136 -109zM464 -10
v254q0 1 -0.5 2.5t-1.5 1.5q-81 66 -133 107q-1 0 -14.5 11.5t-20.5 16.5t-18.5 11t-19.5 6q-6 0 -12.5 -2.5t-12.5 -6t-13.5 -9t-13 -9.5t-12 -10t-9.5 -8q-47 -37 -133 -107q-2 -1 -2 -4v-254q0 -6 6 -6h404q6 0 6 6zM432 178q2 -3 2.5 -6t-0.5 -6t-4 -5
q-15 -13 -28.5 -23.5t-25 -20t-17.5 -13.5q-3 -3 -12 -10.5l-15 -12.5t-16.5 -12t-19 -11t-19.5 -7t-21 -3q-12 0 -24.5 3.5t-25 11.5t-19.5 13t-20 15.5t-14 12.5q-16 12 -71 57q-10 7 -2 17l15 18q8 9 17 2q55 -44 71 -57q1 0 14.5 -11.5t20.5 -16.5t18.5 -11t19.5 -6
t19.5 6t18.5 10.5t20.5 16.5t14.5 12q16 13 71 57q9 7 17 -2z" />
    <glyph glyph-name="address-book" unicode="&#xf2b9;" horiz-adv-x="448" 
d="M436 288h-20v-64h20q12 0 12 -12v-40q0 -12 -12 -12h-20v-64h20q12 0 12 -12v-40q0 -12 -12 -12h-20v-48q0 -20 -14 -34t-34 -14h-320q-20 0 -34 14t-14 34v416q0 20 14 34t34 14h320q20 0 34 -14t14 -34v-48h20q12 0 12 -12v-40q0 -12 -12 -12zM368 -16v416h-320v-416
h320zM208 192q-26 0 -45 19t-19 45t19 45t45 19t45 -19t19 -45t-19 -45t-45 -19zM118 64q-9 0 -15.5 5.5t-6.5 13.5v19q0 16 9 29.5t24.5 21t33.5 7.5q5 0 10.5 -2t14 -4t20.5 -2q15 0 28 4t17 4q18 0 33.5 -7.5t24.5 -21t9 -29.5v-19q0 -5 -3 -9.5t-8 -7t-11 -2.5h-180z
" />
    <glyph glyph-name="address-card" unicode="&#xf2bb;" horiz-adv-x="576" 
d="M528 416q20 0 34 -14t14 -34v-352q0 -20 -14 -34t-34 -14h-480q-20 0 -34 14t-14 34v352q0 20 14 34t34 14h480zM528 16v352h-480v-352h480zM208 192q-26 0 -45 19t-19 45t19 45t45 19t45 -19t19 -45t-19 -45t-45 -19zM118 64q-9 0 -15.5 5.5t-6.5 13.5v19q0 16 9 29.5
t24.5 21t33.5 7.5q5 0 10.5 -2t14 -4t20.5 -2q15 0 28 4t17 4q18 0 33.5 -7.5t24.5 -21t9 -29.5v-19q0 -5 -3 -9.5t-8 -7t-11 -2.5h-180zM360 128q-8 0 -8 8v16q0 8 8 8h112q8 0 8 -8v-16q0 -8 -8 -8h-112zM360 192q-8 0 -8 8v16q0 8 8 8h112q8 0 8 -8v-16q0 -8 -8 -8h-112z
M360 256q-8 0 -8 8v16q0 8 8 8h112q8 0 8 -8v-16q0 -8 -8 -8h-112z" />
    <glyph glyph-name="user-circle" unicode="&#xf2bd;" horiz-adv-x="496" 
d="M248 344q40 0 68 -28t28 -68t-28 -68t-68 -28t-68 28t-28 68t28 68t68 28zM248 200q20 0 34 14t14 34t-14 34t-34 14t-34 -14t-14 -34t14 -34t34 -14zM248 440q103 0 175.5 -72.5t72.5 -175.5t-72.5 -175.5t-175.5 -72.5t-175.5 72.5t-72.5 175.5t72.5 175.5t175.5 72.5z
M248 -8q74 0 130 48q-24 38 -69 40q-16 -5 -31 -7.5t-30 -2.5q-29 0 -60 10q-45 -1 -70 -40q56 -48 130 -48zM411 76q37 52 37 116q0 83 -58.5 141.5t-141.5 58.5q-54 0 -100 -27t-73 -73t-27 -100q0 -64 37 -116q41 52 105 52q3 0 21.5 -5t36.5 -5q14 0 26 2.5t20 5t12 2.5
q64 0 105 -52z" />
    <glyph glyph-name="id-badge" unicode="&#xf2c1;" horiz-adv-x="384" 
d="M336 448q20 0 34 -14t14 -34v-416q0 -20 -14 -34t-34 -14h-288q-20 0 -34 14t-14 34v416q0 20 14 34t34 14h288zM336 -16v416h-288v-416h288zM144 336q-7 0 -11.5 4.5t-4.5 11.5t4.5 11.5t11.5 4.5h96q7 0 11.5 -4.5t4.5 -11.5t-4.5 -11.5t-11.5 -4.5h-96zM192 160
q-26 0 -45 19t-19 45t19 45t45 19t45 -19t19 -45t-19 -45t-45 -19zM102 32q-9 0 -15.5 5.5t-6.5 13.5v19q0 24 19.5 41t47.5 17q5 0 10.5 -2t14 -4t20.5 -2q7 0 13.5 1t10.5 2t7.5 2l7 2t6.5 1q18 0 33.5 -7.5t24.5 -21t9 -29.5v-19q0 -5 -3 -9.5t-8 -7t-11 -2.5h-180z" />
    <glyph glyph-name="id-card" unicode="&#xf2c2;" horiz-adv-x="576" 
d="M528 416q20 0 34 -14t14 -34v-352q0 -20 -14 -34t-34 -14h-480q-20 0 -34 14t-14 34v352q0 20 14 34t34 14h480zM528 16v288h-480v-288h33q-1 4 -1 22q0 24 19.5 41t47.5 17q5 0 10.5 -2t14 -4t20.5 -2q15 0 28 4t17 4q18 0 33.5 -7.5t24.5 -21t9 -29.5q0 -18 -1 -22h225
zM360 96q-8 0 -8 8v16q0 8 8 8h112q8 0 8 -8v-16q0 -8 -8 -8h-112zM360 160q-8 0 -8 8v16q0 8 8 8h112q8 0 8 -8v-16q0 -8 -8 -8h-112zM360 224q-8 0 -8 8v16q0 8 8 8h112q8 0 8 -8v-16q0 -8 -8 -8h-112zM192 128q-26 0 -45 19t-19 45t19 45t45 19t45 -19t19 -45t-19 -45
t-45 -19z" />
    <glyph glyph-name="window-maximize" unicode="&#xf2d0;" 
d="M464 416q20 0 34 -14t14 -34v-352q0 -20 -14 -34t-34 -14h-416q-20 0 -34 14t-14 34v352q0 20 14 34t34 14h416zM464 22v234h-416v-234q0 -6 6 -6h404q6 0 6 6z" />
    <glyph glyph-name="window-minimize" unicode="&#xf2d1;" 
d="M480 -32h-448q-13 0 -22.5 9.5t-9.5 22.5t9.5 22.5t22.5 9.5h448q13 0 22.5 -9.5t9.5 -22.5t-9.5 -22.5t-22.5 -9.5z" />
    <glyph glyph-name="window-restore" unicode="&#xf2d2;" 
d="M464 448q20 0 34 -14t14 -34v-320q0 -20 -14 -34t-34 -14h-48v-48q0 -20 -14 -34t-34 -14h-320q-20 0 -34 14t-14 34v320q0 20 14 34t34 14h48v48q0 20 14 34t34 14h320zM368 -16v208h-320v-208h320zM464 80v320h-320v-48h224q20 0 34 -14t14 -34v-224h48z" />
    <glyph glyph-name="snowflake" unicode="&#xf2dc;" horiz-adv-x="448" 
d="M440 93q6 -4 7.5 -10t-1.5 -12l-8 -14q-8 -14 -22 -6l-39 23l9 -34q2 -7 -1.5 -12.5t-9.5 -7.5l-15 -4q-6 -2 -12 1.5t-7 9.5l-22 81l-72 42v-84l59 -59q11 -12 0 -23l-11 -11q-12 -12 -23 0l-25 25v-46q0 -7 -4.5 -11.5t-10.5 -4.5h-16q-7 0 -11.5 4.5t-4.5 11.5v46
l-25 -25q-11 -12 -22 0l-11 11q-4 4 -4 11t4 11l58 60v84l-71 -42l-22 -81q-2 -6 -7.5 -9.5t-11.5 -1.5l-15 4q-7 2 -10 7.5t-1 11.5l9 35l-39 -23q-6 -3 -12.5 -1.5t-9.5 7.5l-8 14q-8 14 6 22l39 23l-34 9q-6 2 -9.5 7.5t-1.5 12.5l4 15q2 7 7.5 10t11.5 2l80 -22l72 42
l-72 42l-80 -22q-6 -1 -11.5 2t-7.5 10l-4 15q-2 7 1.5 12.5t9.5 7.5l34 9l-39 23q-14 8 -6 22l8 14q8 14 22 6l39 -23l-9 34q-2 7 1 12.5t10 7.5l15 4q4 1 8 0t7 -4t4 -7l22 -81l71 -42v84l-58 59q-11 12 0 23l12 11q11 12 22 0l25 -25v46q0 7 4.5 11.5t10.5 4.5h16
q7 0 11.5 -4.5t4.5 -11.5v-46l25 26q11 11 22 0l11 -12q11 -11 0 -22l-58 -60v-84l72 42l21 81q2 6 7.5 9.5t11.5 1.5l15 -4q7 -2 10 -7.5t2 -11.5l-10 -35l40 23q2 2 5.5 2t6 -0.5t5.5 -2.5t4 -5l8 -14q8 -14 -6 -22l-39 -23l34 -9q6 -2 9.5 -7.5t1.5 -12.5l-4 -15
q-2 -7 -7.5 -10t-11.5 -1l-80 21l-72 -42l72 -42l80 22q6 1 11.5 -2t7.5 -10l4 -15q1 -5 0 -9t-4 -7t-7 -4l-34 -9z" />
    <glyph glyph-name="trash-alt" unicode="&#xf2ed;" horiz-adv-x="448" 
d="M268 32q-12 0 -12 12v216q0 12 12 12h24q12 0 12 -12v-216q0 -12 -12 -12h-24zM432 368q7 0 11.5 -4.5t4.5 -11.5v-16q0 -7 -4.5 -11.5t-11.5 -4.5h-16v-336q0 -20 -14 -34t-34 -14h-288q-20 0 -34 14t-14 34v336h-16q-7 0 -11.5 4.5t-4.5 11.5v16q0 7 4.5 11.5t11.5 4.5
h82l34 57q6 9 18 16t24 7h100q3 0 5 -0.5t4.5 -1l5 -1t4.5 -2t4.5 -2.5t4.5 -2.5l4 -3t3.5 -3.5t3 -3.5l3.5 -3.5l34 -57h82zM172 397l-18 -29h140l-18 29q-2 3 -5 3h-94q-3 0 -5 -3zM368 -16v336h-288v-336h288zM156 32q-12 0 -12 12v216q0 12 12 12h24q12 0 12 -12v-216
q0 -12 -12 -12h-24z" />
    <glyph glyph-name="images" unicode="&#xf302;" horiz-adv-x="576" 
d="M480 32v-16q0 -20 -14 -34t-34 -14h-384q-20 0 -34 14t-14 34v256q0 20 14 34t34 14h16v-48h-10q-6 0 -6 -6v-244q0 -6 6 -6h372q6 0 6 6v10h48zM522 368h-372q-6 0 -6 -6v-244q0 -6 6 -6h372q6 0 6 6v244q0 6 -6 6zM528 416q20 0 34 -14t14 -34v-256q0 -20 -14 -34
t-34 -14h-384q-20 0 -34 14t-14 34v256q0 20 14 34t34 14h384zM264 304q0 -17 -11.5 -28.5t-28.5 -11.5t-28.5 11.5t-11.5 28.5t11.5 28.5t28.5 11.5t28.5 -11.5t11.5 -28.5zM192 208l40 40q8 8 16 0l40 -40l104 104q2 2 5 2.5t6 0t5 -2.5l72 -72v-80h-288v48z" />
    <glyph glyph-name="clipboard" unicode="&#xf328;" horiz-adv-x="384" 
d="M336 384q20 0 34 -14t14 -34v-352q0 -20 -14 -34t-34 -14h-288q-20 0 -34 14t-14 34v352q0 20 14 34t34 14h80q0 26 19 45t45 19t45 -19t19 -45h80zM192 408q-10 0 -17 -7t-7 -17t7 -17t17 -7t17 7t7 17t-7 17t-17 7zM336 -10v340q0 6 -6 6h-42v-36q0 -12 -12 -12h-168
q-12 0 -12 12v36h-42q-6 0 -6 -6v-340q0 -6 6 -6h276q6 0 6 6z" />
    <glyph glyph-name="arrow-alt-circle-down" unicode="&#xf358;" 
d="M256 440q103 0 175.5 -72.5t72.5 -175.5t-72.5 -175.5t-175.5 -72.5t-175.5 72.5t-72.5 175.5t72.5 175.5t175.5 72.5zM256 -8q83 0 141.5 58.5t58.5 141.5t-58.5 141.5t-141.5 58.5t-141.5 -58.5t-58.5 -141.5t58.5 -141.5t141.5 -58.5zM224 308q0 12 12 12h40
q12 0 12 -12v-116h67q8 0 11 -7.5t-2 -12.5l-100 -100q-8 -8 -16 0l-100 100q-3 4 -3 8.5t3.5 8t8.5 3.5h67v116z" />
    <glyph glyph-name="arrow-alt-circle-left" unicode="&#xf359;" 
d="M8 192q0 103 72.5 175.5t175.5 72.5t175.5 -72.5t72.5 -175.5t-72.5 -175.5t-175.5 -72.5t-175.5 72.5t-72.5 175.5zM456 192q0 83 -58.5 141.5t-141.5 58.5t-141.5 -58.5t-58.5 -141.5t58.5 -141.5t141.5 -58.5t141.5 58.5t58.5 141.5zM384 212v-40q0 -12 -12 -12h-116
v-67q0 -8 -7.5 -11t-12.5 2l-100 100q-8 8 0 16l100 100q2 2 6 2.5t7 -0.5t5 -4t2 -7v-67h116q12 0 12 -12z" />
    <glyph glyph-name="arrow-alt-circle-right" unicode="&#xf35a;" 
d="M504 192q0 -103 -72.5 -175.5t-175.5 -72.5t-175.5 72.5t-72.5 175.5t72.5 175.5t175.5 72.5t175.5 -72.5t72.5 -175.5zM56 192q0 -83 58.5 -141.5t141.5 -58.5t141.5 58.5t58.5 141.5t-58.5 141.5t-141.5 58.5t-141.5 -58.5t-58.5 -141.5zM128 172v40q0 12 12 12h116v67
q0 8 7.5 11t12.5 -2l100 -100q8 -8 0 -16l-100 -100q-5 -5 -12.5 -2t-7.5 11v67h-116q-12 0 -12 12z" />
    <glyph glyph-name="arrow-alt-circle-up" unicode="&#xf35b;" 
d="M256 -56q-103 0 -175.5 72.5t-72.5 175.5t72.5 175.5t175.5 72.5t175.5 -72.5t72.5 -175.5t-72.5 -175.5t-175.5 -72.5zM256 392q-83 0 -141.5 -58.5t-58.5 -141.5t58.5 -141.5t141.5 -58.5t141.5 58.5t58.5 141.5t-58.5 141.5t-141.5 58.5zM276 64h-40q-12 0 -12 12v116
h-67q-8 0 -11 7.5t2 12.5l100 100q8 8 16 0l100 -100q2 -2 2.5 -6t-0.5 -7t-4 -5t-7 -2h-67v-116q0 -12 -12 -12z" />
    <glyph glyph-name="gem" unicode="&#xf3a5;" horiz-adv-x="576" 
d="M464 448q6 0 10 -5l100 -148q5 -7 -1 -14l-276 -341q-3 -4 -9 -4t-9 4l-276 341q-6 7 -1 14l100 148q3 5 10 5h352zM445 400h-57l52 -96h68zM243 400l-52 -96h194l-52 96h-90zM131 400l-63 -96h68l52 96h-57zM88 256l120 -160l-68 160h-52zM191 256l97 -243l97 243h-194z
M368 96l120 160h-52z" />
    <glyph glyph-name="money-bill-alt" unicode="&#xf3d1;" horiz-adv-x="640" 
d="M320 304q40 0 68 -33t28 -79t-28 -79t-68 -33t-68 33t-28 79t28 79t68 33zM360 136v16q0 8 -8 8h-16v88q0 8 -8 8h-14q-3 0 -6.5 -1t-6.5 -3l-15 -10q-4 -3 -4 -7l2 -4l8 -14q3 -3 7 -3q3 0 5 1v-55h-16q-8 0 -8 -8v-16q0 -8 8 -8h64q7 2 8 8zM608 384q13 0 22.5 -9.5
t9.5 -22.5v-320q0 -13 -9.5 -22.5t-22.5 -9.5h-576q-13 0 -22.5 9.5t-9.5 22.5v320q0 13 9.5 22.5t22.5 9.5h576zM592 112v160q-27 0 -45.5 18.5t-18.5 45.5h-416q0 -27 -18.5 -45.5t-45.5 -18.5v-160q27 0 45.5 -18.5t18.5 -45.5h416q0 27 18.5 45.5t45.5 18.5z" />
    <glyph glyph-name="window-close" unicode="&#xf410;" 
d="M464 416q20 0 34 -14t14 -34v-352q0 -20 -14 -34t-34 -14h-416q-20 0 -34 14t-14 34v352q0 20 14 34t34 14h416zM464 22v340q0 6 -6 6h-404q-6 0 -6 -6v-340q0 -6 6 -6h404q6 0 6 6zM356 253l-61 -61l61 -61q9 -9 0 -17l-22 -23q-8 -8 -17 0l-61 62l-61 -62q-9 -8 -17 0
l-22 23q-9 8 0 17l61 61l-61 61q-9 9 0 17l22 22q8 9 17 0l61 -61l61 61q9 9 17 0l22 -22q7 -8 0 -17z" />
    <glyph glyph-name="comment-dots" unicode="&#xf4ad;" 
d="M144 240q13 0 22.5 -9.5t9.5 -22.5t-9.5 -22.5t-22.5 -9.5t-22.5 9.5t-9.5 22.5t9.5 22.5t22.5 9.5zM256 240q13 0 22.5 -9.5t9.5 -22.5t-9.5 -22.5t-22.5 -9.5t-22.5 9.5t-9.5 22.5t9.5 22.5t22.5 9.5zM368 240q13 0 22.5 -9.5t9.5 -22.5t-9.5 -22.5t-22.5 -9.5
t-22.5 9.5t-9.5 22.5t9.5 22.5t22.5 9.5zM256 416q106 0 181 -61t75 -147t-75 -147t-181 -61q-47 0 -93 14q-65 -46 -139 -46q-16 0 -22 14.5t4 25.5q2 2 9.5 10.5t19 27t18.5 36.5q-53 56 -53 126q0 86 75 147t181 61zM256 48q86 0 147 47t61 113t-61 113t-147 47t-147 -47
t-61 -113q0 -51 40 -93l20 -22l-10 -28q-3 -7 -6.5 -14.5t-6.5 -13.5t-7 -13q30 10 57 29l20 14l23 -7q38 -12 78 -12z" />
    <glyph glyph-name="smile-wink" unicode="&#xf4da;" horiz-adv-x="496" 
d="M248 440q103 0 175.5 -72.5t72.5 -175.5t-72.5 -175.5t-175.5 -72.5t-175.5 72.5t-72.5 175.5t72.5 175.5t175.5 72.5zM248 -8q83 0 141.5 58.5t58.5 141.5t-58.5 141.5t-141.5 58.5t-141.5 -58.5t-58.5 -141.5t58.5 -141.5t141.5 -58.5zM365.5 138.5q7.5 -6.5 8.5 -16.5
t-5 -17q-11 -14 -25 -24.5t-29.5 -17.5t-32.5 -11t-34 -4q-35 0 -66.5 15t-54.5 42q-6 7 -5 17t8.5 16.5t17.5 5.5t16 -9q16 -18 38 -28.5t46 -10.5q51 0 84 39q6 8 16 9t17.5 -5.5zM168 208q-13 0 -22.5 9.5t-9.5 22.5t9.5 22.5t22.5 9.5t22.5 -9.5t9.5 -22.5t-9.5 -22.5
t-22.5 -9.5zM328 268q20 0 38.5 -12t21.5 -30q1 -8 -6.5 -12t-13.5 1l-10 9q-7 6 -18.5 8.5t-23 0t-19.5 -8.5l-9 -9q-6 -5 -13.5 -1t-6.5 12q3 18 21.5 30t38.5 12z" />
    <glyph glyph-name="angry" unicode="&#xf556;" horiz-adv-x="496" 
d="M248 440q103 0 175.5 -72.5t72.5 -175.5t-72.5 -175.5t-175.5 -72.5t-175.5 72.5t-72.5 175.5t72.5 175.5t175.5 72.5zM248 -8q83 0 141.5 58.5t58.5 141.5t-58.5 141.5t-141.5 58.5t-141.5 -58.5t-58.5 -141.5t58.5 -141.5t141.5 -58.5zM248 136q53 0 87 -41
q2 -3 3.5 -6.5t1.5 -7t-0.5 -7t-2.5 -7t-5 -5.5q-8 -7 -18 -6t-16 9q-12 14 -31 19.5t-38 0t-31 -19.5q-4 -5 -10 -7.5t-12.5 -1.5t-11.5 6q-7 6 -8 16t5 17q34 41 87 41zM200 208q0 -13 -9.5 -22.5t-22.5 -9.5q-9 0 -16 4t-11.5 11.5t-4.5 16.5q0 8 5 16l-28 9
q-9 3 -14 11.5t-2 18t11.5 14.5t18.5 2l80 -24q9 -3 14 -11.5t2 -18.5q-5 -17 -23 -17zM399 263q2 -7 0.5 -13t-6 -10.5t-10.5 -6.5l-28 -8q5 -9 5 -17q0 -4 -1 -8.5t-3 -8t-5 -6.5t-6.5 -5t-8 -3t-8.5 -1q-13 0 -22.5 9.5t-9.5 22.5q-18 0 -23 17q-3 10 2 18.5t14 11.5
l80 24q7 2 13 0.5t10.5 -6t6.5 -10.5z" />
    <glyph glyph-name="dizzy" unicode="&#xf567;" horiz-adv-x="496" 
d="M248 440q103 0 175.5 -72.5t72.5 -175.5t-72.5 -175.5t-175.5 -72.5t-175.5 72.5t-72.5 175.5t72.5 175.5t175.5 72.5zM248 -8q83 0 141.5 58.5t58.5 141.5t-58.5 141.5t-141.5 58.5t-141.5 -58.5t-58.5 -141.5t58.5 -141.5t141.5 -58.5zM214 210q-6 -6 -14 -6t-14 6
l-18 17l-18 -17q-6 -6 -14 -6t-14 6q-2 2 -3.5 5t-2 6t0 6t2 6t3.5 5l18 18l-18 18q-4 4 -5.5 9t0 10t5.5 9t9 5.5t10 0t9 -5.5l18 -18l18 18q6 6 14 6t14 -6t6 -14t-6 -14l-18 -18l18 -18q6 -6 6 -14t-6 -14zM374 302q6 -6 6 -14t-6 -14l-18 -18l18 -18q6 -6 6 -14t-6 -14
t-14 -6t-14 6l-18 18l-18 -18q-6 -6 -14 -6t-14 6t-6 14t6 14l18 18l-18 18q-6 6 -6 14t6 14q4 4 9 5.5t10 0t9 -5.5l18 -18l18 18q4 4 9 5.5t10 0t9 -5.5zM248 176q26 0 45 -19t19 -45t-19 -45t-45 -19t-45 19t-19 45t19 45t45 19z" />
    <glyph glyph-name="flushed" unicode="&#xf579;" horiz-adv-x="496" 
d="M248 440q103 0 175.5 -72.5t72.5 -175.5t-72.5 -175.5t-175.5 -72.5t-175.5 72.5t-72.5 175.5t72.5 175.5t175.5 72.5zM248 -8q83 0 141.5 58.5t58.5 141.5t-58.5 141.5t-141.5 58.5t-141.5 -58.5t-58.5 -141.5t58.5 -141.5t141.5 -58.5zM344 304q33 0 56.5 -23.5
t23.5 -56.5t-23.5 -56.5t-56.5 -23.5t-56.5 23.5t-23.5 56.5t23.5 56.5t56.5 23.5zM344 176q20 0 34 14t14 34t-14 34t-34 14t-34 -14t-14 -34t14 -34t34 -14zM344 248q10 0 17 -7t7 -17t-7 -17t-17 -7t-17 7t-7 17t7 17t17 7zM232 224q0 -33 -23.5 -56.5t-56.5 -23.5
t-56.5 23.5t-23.5 56.5t23.5 56.5t56.5 23.5t56.5 -23.5t23.5 -56.5zM152 176q20 0 34 14t14 34t-14 34t-34 14t-34 -14t-14 -34t14 -34t34 -14zM152 248q10 0 17 -7t7 -17t-7 -17t-17 -7t-17 7t-7 17t7 17t17 7zM312 104q10 0 17 -7t7 -17t-7 -17t-17 -7h-128q-10 0 -17 7
t-7 17t7 17t17 7h128z" />
    <glyph glyph-name="frown-open" unicode="&#xf57a;" horiz-adv-x="496" 
d="M248 440q103 0 175.5 -72.5t72.5 -175.5t-72.5 -175.5t-175.5 -72.5t-175.5 72.5t-72.5 175.5t72.5 175.5t175.5 72.5zM248 -8q83 0 141.5 58.5t58.5 141.5t-58.5 141.5t-141.5 58.5t-141.5 -58.5t-58.5 -141.5t58.5 -141.5t141.5 -58.5zM200 240q0 -13 -9.5 -22.5
t-22.5 -9.5t-22.5 9.5t-9.5 22.5t9.5 22.5t22.5 9.5t22.5 -9.5t9.5 -22.5zM328 272q13 0 22.5 -9.5t9.5 -22.5t-9.5 -22.5t-22.5 -9.5t-22.5 9.5t-9.5 22.5t9.5 22.5t22.5 9.5zM248 160q30 0 60.5 -17t35.5 -44q1 -9 -5.5 -15t-15.5 -3q-49 15 -75 15t-75 -15q-9 -3 -15.5 3
t-5.5 15q3 19 20 33.5t37 21t39 6.5z" />
    <glyph glyph-name="grimace" unicode="&#xf57f;" horiz-adv-x="496" 
d="M248 440q103 0 175.5 -72.5t72.5 -175.5t-72.5 -175.5t-175.5 -72.5t-175.5 72.5t-72.5 175.5t72.5 175.5t175.5 72.5zM248 -8q83 0 141.5 58.5t58.5 141.5t-58.5 141.5t-141.5 58.5t-141.5 -58.5t-58.5 -141.5t58.5 -141.5t141.5 -58.5zM168 208q-13 0 -22.5 9.5
t-9.5 22.5t9.5 22.5t22.5 9.5t22.5 -9.5t9.5 -22.5t-9.5 -22.5t-22.5 -9.5zM328 208q-13 0 -22.5 9.5t-9.5 22.5t9.5 22.5t22.5 9.5t22.5 -9.5t9.5 -22.5t-9.5 -22.5t-22.5 -9.5zM344 192q20 0 34 -14t14 -34v-32q0 -20 -14 -34t-34 -14h-192q-20 0 -34 14t-14 34v32
q0 20 14 34t34 14h192zM176 96v24h-40v-8q0 -7 4.5 -11.5t11.5 -4.5h24zM176 136v24h-24q-7 0 -11.5 -4.5t-4.5 -11.5v-8h40zM240 96v24h-48v-24h48zM240 136v24h-48v-24h48zM304 96v24h-48v-24h48zM304 136v24h-48v-24h48zM360 112v8h-40v-24h24q7 0 11.5 4.5t4.5 11.5z
M360 136v8q0 7 -4.5 11.5t-11.5 4.5h-24v-24h40z" />
    <glyph glyph-name="grin" unicode="&#xf580;" horiz-adv-x="496" 
d="M248 440q103 0 175.5 -72.5t72.5 -175.5t-72.5 -175.5t-175.5 -72.5t-175.5 72.5t-72.5 175.5t72.5 175.5t175.5 72.5zM248 -8q83 0 141.5 58.5t58.5 141.5t-58.5 141.5t-141.5 58.5t-141.5 -58.5t-58.5 -141.5t58.5 -141.5t141.5 -58.5zM354 143q7 3 13 -2t4 -13
q-5 -34 -43.5 -57t-79.5 -23t-79.5 23t-43.5 57q-1 4 0.5 7t4 5.5t6 3.5t6.5 -1q20 -6 47.5 -9.5t58.5 -3.5q65 0 106 13zM168 208q-13 0 -22.5 9.5t-9.5 22.5t9.5 22.5t22.5 9.5t22.5 -9.5t9.5 -22.5t-9.5 -22.5t-22.5 -9.5zM328 208q-13 0 -22.5 9.5t-9.5 22.5t9.5 22.5
t22.5 9.5t22.5 -9.5t9.5 -22.5t-9.5 -22.5t-22.5 -9.5z" />
    <glyph glyph-name="grin-alt" unicode="&#xf581;" horiz-adv-x="496" 
d="M200 200q-5 -9 -15.5 -9t-16.5 9q-9 13 -12.5 26.5t-3.5 29.5q1 34 16 56q3 6 9.5 8t12.5 0t10 -8q15 -22 16 -56q-1 -34 -16 -56zM328 200q-3 -6 -9.5 -8t-12.5 0t-10 8q-15 22 -16 56q1 34 16 56q2 4 6.5 6.5t9 2.5t9 -2.5t7.5 -6.5q15 -22 16 -56q-1 -34 -16 -56z
M248 440q103 0 175.5 -72.5t72.5 -175.5t-72.5 -175.5t-175.5 -72.5t-175.5 72.5t-72.5 175.5t72.5 175.5t175.5 72.5zM248 -8q83 0 141.5 58.5t58.5 141.5t-58.5 141.5t-141.5 58.5t-141.5 -58.5t-58.5 -141.5t58.5 -141.5t141.5 -58.5zM354 143q7 3 13 -2t4 -13
q-5 -34 -43.5 -57t-79.5 -23q-13 0 -26.5 2.5t-26.5 7.5t-25 12.5t-21.5 16t-15.5 19.5t-8 22q-1 4 0.5 7.5t4 5.5t6 3t6.5 -1q20 -6 47.5 -9.5t58.5 -3.5q65 0 106 13z" />
    <glyph glyph-name="grin-beam" unicode="&#xf582;" horiz-adv-x="496" 
d="M248 440q103 0 175.5 -72.5t72.5 -175.5t-72.5 -175.5t-175.5 -72.5t-175.5 72.5t-72.5 175.5t72.5 175.5t175.5 72.5zM248 -8q83 0 141.5 58.5t58.5 141.5t-58.5 141.5t-141.5 58.5t-141.5 -58.5t-58.5 -141.5t58.5 -141.5t141.5 -58.5zM354 143q7 3 13 -2t4 -13
q-5 -34 -43.5 -57t-79.5 -23t-79.5 23t-43.5 57q-1 4 0.5 7.5t4 5.5t6 3t6.5 -1q20 -6 47.5 -9.5t58.5 -3.5q65 0 106 13zM118 216q-7 2 -6 9q2 30 19.5 50.5t36.5 20.5t36.5 -20.5t19.5 -50.5q1 -7 -5.5 -9t-9.5 4l-10 17q-12 22 -31 22t-32 -22l-9 -17q-4 -4 -9 -4z
M278 216q-7 2 -6 9q2 30 19.5 50.5t36.5 20.5t36.5 -20.5t19.5 -50.5q1 -7 -5.5 -9t-9.5 4l-10 17q-12 22 -31 22t-32 -22l-9 -17q-3 -6 -9 -4z" />
    <glyph glyph-name="grin-beam-sweat" unicode="&#xf583;" horiz-adv-x="496" 
d="M440 288q-22 0 -37.5 17t-15.5 42q0 28 46 97q3 4 7 4t7 -4q46 -69 46 -97q0 -25 -15.5 -42t-37.5 -17zM248 48q-10 0 -20 1.5t-20 4.5t-19.5 7t-18.5 9.5t-16.5 11.5t-13.5 13.5t-10 15.5t-5 17q-2 8 4 13t13 2q41 -13 106 -13q15 0 30 1t28.5 2.5t25.5 4t22 5.5
q7 3 13 -2.5t4 -12.5q-5 -34 -43.5 -57t-79.5 -23zM378.5 216.5q-6.5 -1.5 -9.5 3.5l-9 17q-13 22 -32 22t-31 -22l-10 -17q-3 -6 -9 -4q-7 2 -6 9q2 30 19.5 50.5t36.5 20.5t36.5 -20.5t19.5 -50.5q1 -7 -5.5 -8.5zM484 269q12 -37 12 -77q0 -103 -72.5 -175.5
t-175.5 -72.5t-175.5 72.5t-72.5 175.5t72.5 175.5t175.5 72.5q34 0 65.5 -9t59.5 -25q-14 -28 -17 -46q-50 32 -108 32q-83 0 -141.5 -58.5t-58.5 -141.5t58.5 -141.5t141.5 -58.5t141.5 58.5t58.5 141.5q0 33 -11 64q26 0 47 13zM168 259q-19 0 -32 -22l-9 -17
q-3 -6 -9 -4q-7 2 -6 9q2 20 11 36.5t21 25.5t24 9q19 0 36.5 -20.5t19.5 -50.5q1 -7 -5.5 -9t-9.5 4l-9 17q-13 22 -32 22z" />
    <glyph glyph-name="grin-hearts" unicode="&#xf584;" horiz-adv-x="496" 
d="M354 143q7 3 13 -2t4 -13q-5 -34 -43.5 -57t-79.5 -23q-13 0 -26.5 2.5t-26.5 7.5t-25 12.5t-21.5 16t-15.5 19.5t-8 22q-1 4 0.5 7.5t4 5.5t6 3t6.5 -1q20 -6 47.5 -9.5t58.5 -3.5q65 0 106 13zM201 192l-70 18q-16 4 -23 18.5t-2 29.5q5 13 18 19t27 3l7 -2l2 7
q4 14 16 22t26 6q16 -3 24.5 -16t4.5 -29l-20 -70q-3 -6 -10 -6zM390 258q5 -15 -2 -29.5t-23 -17.5l-70 -19q-8 -2 -10 6l-20 70q-2 10 0.5 20t10.5 16.5t18 8.5q9 1 18 -2t15 -10t9 -16l2 -7l7 2q14 3 27 -3t18 -19zM248 440q103 0 175.5 -72.5t72.5 -175.5t-72.5 -175.5
t-175.5 -72.5t-175.5 72.5t-72.5 175.5t72.5 175.5t175.5 72.5zM248 -8q83 0 141.5 58.5t58.5 141.5t-58.5 141.5t-141.5 58.5t-141.5 -58.5t-58.5 -141.5t58.5 -141.5t141.5 -58.5z" />
    <glyph glyph-name="grin-squint" unicode="&#xf585;" horiz-adv-x="496" 
d="M248 440q103 0 175.5 -72.5t72.5 -175.5t-72.5 -175.5t-175.5 -72.5t-175.5 72.5t-72.5 175.5t72.5 175.5t175.5 72.5zM248 -8q83 0 141.5 58.5t58.5 141.5t-58.5 141.5t-141.5 58.5t-141.5 -58.5t-58.5 -141.5t58.5 -141.5t141.5 -58.5zM354 143q7 3 13 -2t4 -13
q-5 -34 -43.5 -57t-79.5 -23t-79.5 23t-43.5 57q-1 4 0.5 7t4 5.5t6 3.5t6.5 -1q20 -6 47.5 -9.5t58.5 -3.5q65 0 106 13zM118.5 184.5q-6.5 7.5 0.5 15.5l33 40l-33 40q-7 8 0 15.5t15 2.5l80 -48q6 -3 6 -10t-6 -10l-80 -48q-9 -5 -15.5 2.5zM362 182l-80 48q-6 3 -6 10
t6 10l80 48q9 5 15 -2q7 -8 0 -16l-33 -40l33 -40q7 -8 0.5 -15.5t-15.5 -2.5z" />
    <glyph glyph-name="grin-squint-tears" unicode="&#xf586;" 
d="M117 64q5 1 8.5 -2.5t2.5 -8.5q-3 -18 -6 -34.5t-10 -37.5t-15 -29q-16 -16 -39.5 -16t-40.5 17t-17 40.5t16 39.5q19 19 101 31zM76 106q-10 -2 -18.5 -4t-15.5 -4t-13 -5q-31 68 -17 144t69 130q72 73 175 73q60 0 113 -27q-7 -21 -12 -49q-23 14 -48.5 21t-52.5 7
q-83 0 -141 -59q-46 -45 -56 -108.5t17 -118.5zM428 293q29 6 49 12q24 -46 27 -98t-15.5 -102t-57.5 -88q-72 -73 -175 -73q-51 0 -99 21q2 3 3 7t2.5 8.5t2.5 9.5t2 10.5t3 11.5q41 -20 86 -20q83 0 141 59q49 48 57 116.5t-26 125.5zM395 320q-5 -1 -8.5 2.5t-2.5 8.5
q12 82 31 101q10 11 25 14.5t29.5 -0.5t25.5 -15q17 -17 17 -40.5t-16 -39.5q-19 -19 -101 -31zM208 212q5 -5 3 -12l-23 -90q-2 -9 -11 -9h-1q-10 1 -11 11l-5 52l-52 5q-3 0 -5.5 1.5t-4 4t-1.5 5.5q0 2 0.5 4t1.5 3.5t3 3t4 1.5l90 23q7 1 12 -3zM248 237q-2 0 -3 -0.5
t-4 0.5t-5 3q-5 5 -3 11l23 91q2 9 12 9q10 -1 11 -11l5 -52l52 -5q10 -1 11 -11t-9 -13zM300 148q46 47 65 84q4 7 11.5 7.5t11.5 -5.5q19 -31 9 -73t-39 -71t-71 -39.5t-73 9.5q-4 2 -5.5 7t0.5 9.5t7 6.5q38 20 84 65z" />
    <glyph glyph-name="grin-stars" unicode="&#xf587;" horiz-adv-x="496" 
d="M248 440q103 0 175.5 -72.5t72.5 -175.5t-72.5 -175.5t-175.5 -72.5t-175.5 72.5t-72.5 175.5t72.5 175.5t175.5 72.5zM248 -8q83 0 141.5 58.5t58.5 141.5t-58.5 141.5t-141.5 58.5t-141.5 -58.5t-58.5 -141.5t58.5 -141.5t141.5 -58.5zM354 143q7 3 13 -2t4 -13
q-5 -34 -43.5 -57t-79.5 -23q-13 0 -26.5 2.5t-26.5 7.5t-25 12.5t-21.5 16t-15.5 19.5t-8 22q-1 4 0.5 7.5t4 5.5t6 3t6.5 -1q20 -6 47.5 -9.5t58.5 -3.5q65 0 106 13zM126 201l6 35l-26 24q-2 3 -2 6t2 5t5 3l35 5l15 31q1 2 3 3.5t4 1.5t4 -1.5t3 -3.5l15 -31l35 -5
q3 -1 5 -3.5t2 -5t-2 -5.5l-26 -24l6 -35q1 -3 -1 -5.5t-4.5 -3t-5.5 0.5l-31 16l-31 -16q-4 -2 -8 0.5t-3 7.5zM385 274q5 -1 6.5 -5.5t-1.5 -8.5l-26 -24l6 -35q1 -5 -2.5 -7.5t-8.5 -0.5l-31 16l-31 -16q-4 -2 -8 0.5t-3 7.5l6 35l-26 24q-2 3 -2 6t2 5t5 3l35 5l15 31
q2 5 7 5t7 -5l15 -31z" />
    <glyph glyph-name="grin-tears" unicode="&#xf588;" horiz-adv-x="640" 
d="M117 192q3 0 6 -1t4 -4t1 -6q-3 -18 -6 -34.5t-10 -37.5t-15 -29q-16 -16 -39.5 -16t-40.5 17t-17 40.5t16 39.5q19 19 101 31zM624 161q16 -16 16 -39.5t-17 -40.5t-40.5 -17t-39.5 16q-19 19 -31 101q-1 5 2.5 8.5t8.5 2.5q18 -3 34.5 -6t37.5 -10t29 -15zM497 100
q11 -32 28 -47q-34 -50 -88 -79.5t-117 -29.5t-117 29.5t-89 79.5q18 15 29 47q25 -49 72.5 -78.5t104.5 -29.5t104.5 29.5t72.5 78.5zM123 224h-1h-1.5h-2.5t-4 -0.5t-6 -1t-8.5 -1t-11.5 -2t-15 -2.5q10 94 80.5 158.5t166.5 64.5t166.5 -64.5t80.5 -159.5q-38 9 -50 7
q-3 21 -10 40t-18 35.5t-24.5 31t-30 26t-34.5 19.5t-38.5 12.5t-41.5 4.5q-29 0 -57 -8.5t-51 -23.5t-41.5 -36t-31 -46.5t-16.5 -54.5v1zM320 48q-26 0 -53 10t-46.5 28.5t-23.5 41.5q-2 8 4 13t13 2q20 -6 47.5 -9.5t58.5 -3.5q65 0 106 13q7 3 13 -2.5t4 -12.5
q-5 -34 -43.5 -57t-79.5 -23zM450.5 216.5q-6.5 -1.5 -9.5 3.5l-9 17q-13 22 -32 22t-31 -22l-10 -17q-3 -6 -9 -4q-7 2 -6 9q2 30 19.5 50.5t36.5 20.5t36.5 -20.5t19.5 -50.5q1 -7 -5.5 -8.5zM240 259q-19 0 -32 -22l-9 -17q-3 -6 -9 -4q-7 2 -6 9q2 30 19.5 50.5
t36.5 20.5t36.5 -20.5t19.5 -50.5q1 -7 -5.5 -9t-9.5 4l-9 17q-13 22 -32 22z" />
    <glyph glyph-name="grin-tongue" unicode="&#xf589;" horiz-adv-x="496" 
d="M248 440q103 0 175.5 -72.5t72.5 -175.5t-72.5 -175.5t-175.5 -72.5t-175.5 72.5t-72.5 175.5t72.5 175.5t175.5 72.5zM312 40v44l-18 9q-7 3 -14.5 2t-13 -6.5t-6.5 -12.5l-3 -12q-2 -7 -9 -7t-9 7l-2 12q-3 11 -13.5 16.5t-21.5 0.5l-18 -9v-43q0 -26 18.5 -45.5
t44.5 -19.5q27 0 46 18.5t19 45.5zM340 15q49 25 78.5 72.5t29.5 104.5q0 41 -16 78t-42.5 63.5t-63.5 42.5t-78 16q-54 0 -100 -27t-73 -73t-27 -100q0 -57 29.5 -104.5t78.5 -72.5q-4 14 -4 25v44q-23 20 -27 44q-2 8 4 13t13 2q20 -6 47.5 -9.5t58.5 -3.5q65 0 106 13
q7 3 13 -2.5t4 -12.5q-4 -24 -27 -44v-44q0 -11 -4 -25zM168 272q13 0 22.5 -9.5t9.5 -22.5t-9.5 -22.5t-22.5 -9.5t-22.5 9.5t-9.5 22.5t9.5 22.5t22.5 9.5zM328 272q13 0 22.5 -9.5t9.5 -22.5t-9.5 -22.5t-22.5 -9.5t-22.5 9.5t-9.5 22.5t9.5 22.5t22.5 9.5z" />
    <glyph glyph-name="grin-tongue-squint" unicode="&#xf58a;" horiz-adv-x="496" 
d="M248 440q103 0 175.5 -72.5t72.5 -175.5t-72.5 -175.5t-175.5 -72.5t-175.5 72.5t-72.5 175.5t72.5 175.5t175.5 72.5zM312 40v44l-18 9q-7 3 -14.5 2t-13 -6.5t-6.5 -12.5l-3 -12q-2 -7 -9 -7t-9 7l-2 12q-3 11 -13.5 16.5t-21.5 0.5l-18 -9v-43q0 -26 18.5 -45.5
t44.5 -19.5q27 0 46 18.5t19 45.5zM340 15q49 25 78.5 72.5t29.5 104.5q0 41 -16 78t-42.5 63.5t-63.5 42.5t-78 16q-54 0 -100 -27t-73 -73t-27 -100q0 -57 29.5 -104.5t78.5 -72.5q-4 14 -4 25v44q-23 20 -27 44q-2 8 4 13t13 2q20 -6 47.5 -9.5t58.5 -3.5q65 0 106 13
q7 3 13 -2.5t4 -12.5q-4 -24 -27 -44v-44q0 -11 -4 -25zM377 295.5q7 -7.5 0 -15.5l-33 -40l33 -40q7 -8 0.5 -15.5t-15.5 -2.5l-80 48q-6 3 -6 10t6 10l80 48q8 5 15 -2.5zM214 250q6 -3 6 -10t-6 -10l-80 -48q-9 -5 -15.5 2.5t0.5 15.5l33 40l-33 40q-7 8 0 15.5t15 2.5z
" />
    <glyph glyph-name="grin-tongue-wink" unicode="&#xf58b;" horiz-adv-x="496" 
d="M152 268q20 0 38.5 -12t21.5 -30q1 -8 -6.5 -12t-13.5 1l-10 9q-7 6 -18.5 8.5t-23 0t-19.5 -8.5l-9 -9q-6 -6 -13.5 -1.5t-6.5 12.5q3 18 21.5 30t38.5 12zM328 320q33 0 56.5 -23.5t23.5 -56.5t-23.5 -56.5t-56.5 -23.5t-56.5 23.5t-23.5 56.5t23.5 56.5t56.5 23.5z
M328 192q20 0 34 14t14 34t-14 34t-34 14t-34 -14t-14 -34t14 -34t34 -14zM328 264q10 0 17 -7t7 -17t-7 -17t-17 -7t-17 7t-7 17t7 17t17 7zM248 440q103 0 175.5 -72.5t72.5 -175.5t-72.5 -175.5t-175.5 -72.5t-175.5 72.5t-72.5 175.5t72.5 175.5t175.5 72.5zM312 40v44
l-18 9q-7 3 -14.5 2t-13 -6.5t-6.5 -12.5l-3 -12q-2 -7 -9 -7t-9 7l-2 12q-3 11 -13.5 16.5t-21.5 0.5l-18 -9v-43q0 -26 18.5 -45.5t44.5 -19.5q27 0 46 18.5t19 45.5zM340 15q49 25 78.5 72.5t29.5 104.5q0 41 -16 78t-42.5 63.5t-63.5 42.5t-78 16q-54 0 -100 -27
t-73 -73t-27 -100q0 -57 29.5 -104.5t78.5 -72.5q-4 14 -4 25v44q-23 20 -27 44q-2 8 4 13t13 2q20 -6 47.5 -9.5t58.5 -3.5q65 0 106 13q7 3 13 -2.5t4 -12.5q-4 -24 -27 -44v-44q0 -11 -4 -25z" />
    <glyph glyph-name="grin-wink" unicode="&#xf58c;" horiz-adv-x="496" 
d="M328 268q20 0 38.5 -12t21.5 -30q1 -5 -2.5 -9.5t-8 -4.5t-9.5 3l-10 9q-11 9 -30 9t-30 -9l-10 -9q-6 -6 -13.5 -2t-6.5 13q3 18 21.5 30t38.5 12zM168 208q-13 0 -22.5 9.5t-9.5 22.5t9.5 22.5t22.5 9.5t22.5 -9.5t9.5 -22.5t-9.5 -22.5t-22.5 -9.5zM354 143q7 3 13 -2
t4 -13q-5 -34 -43.5 -57t-79.5 -23t-79.5 23t-43.5 57q-2 8 4 13t13 2q41 -13 106 -13t106 13zM248 440q103 0 175.5 -72.5t72.5 -175.5t-72.5 -175.5t-175.5 -72.5t-175.5 72.5t-72.5 175.5t72.5 175.5t175.5 72.5zM248 -8q83 0 141.5 58.5t58.5 141.5t-58.5 141.5
t-141.5 58.5t-141.5 -58.5t-58.5 -141.5t58.5 -141.5t141.5 -58.5z" />
    <glyph glyph-name="kiss" unicode="&#xf596;" horiz-adv-x="496" 
d="M168 272q13 0 22.5 -9.5t9.5 -22.5t-9.5 -22.5t-22.5 -9.5t-22.5 9.5t-9.5 22.5t9.5 22.5t22.5 9.5zM304 140q0 -22 -35 -36q35 -14 35 -36q0 -16 -20.5 -29.5t-50.5 -14.5h-1q-6 0 -8 6q-1 6 5 9l17 7q21 9 21 21.5t-21 21.5l-17 7q-8 4 -3 12q1 2 3 3l17 7q21 9 21 22
t-21 21l-17 8q-6 2 -5 9q2 7 8 6q21 -1 37.5 -8t25.5 -16.5t9 -19.5zM248 440q103 0 175.5 -72.5t72.5 -175.5t-72.5 -175.5t-175.5 -72.5t-175.5 72.5t-72.5 175.5t72.5 175.5t175.5 72.5zM248 -8q83 0 141.5 58.5t58.5 141.5t-58.5 141.5t-141.5 58.5t-141.5 -58.5
t-58.5 -141.5t58.5 -141.5t141.5 -58.5zM328 272q13 0 22.5 -9.5t9.5 -22.5t-9.5 -22.5t-22.5 -9.5t-22.5 9.5t-9.5 22.5t9.5 22.5t22.5 9.5z" />
    <glyph glyph-name="kiss-beam" unicode="&#xf597;" horiz-adv-x="496" 
d="M168 296q19 0 36.5 -20.5t19.5 -50.5q0 -7 -6 -9t-9 4l-10 17q-12 22 -31 22t-32 -22l-9 -17q-3 -5 -9.5 -3.5t-5.5 8.5q1 15 6.5 28.5t13.5 22.5t17.5 14.5t18.5 5.5zM248 440q103 0 175.5 -72.5t72.5 -175.5t-72.5 -175.5t-175.5 -72.5t-175.5 72.5t-72.5 175.5
t72.5 175.5t175.5 72.5zM248 -8q83 0 141.5 58.5t58.5 141.5t-58.5 141.5t-141.5 58.5t-141.5 -58.5t-58.5 -141.5t58.5 -141.5t141.5 -58.5zM304 140q0 -22 -35 -36q35 -14 35 -36q0 -16 -20.5 -29.5t-50.5 -14.5h-1q-6 0 -8 6q-1 6 5 9l17 7q21 9 21 21.5t-21 21.5l-17 7
q-8 4 -3 12q1 2 3 3l17 7q21 9 21 22t-21 21l-17 8q-6 2 -5 9q2 7 8 6q21 -1 37.5 -8t25.5 -16.5t9 -19.5zM328 296q19 0 36.5 -20.5t19.5 -50.5q0 -7 -6 -9t-9 4l-10 17q-12 22 -31 22t-32 -22l-9 -17q-1 -2 -2.5 -3t-3.5 -1h-3q-7 2 -6 9q2 30 19.5 50.5t36.5 20.5z" />
    <glyph glyph-name="kiss-wink-heart" unicode="&#xf598;" horiz-adv-x="504" 
d="M304 140q0 -22 -35 -37q35 -14 35 -36q0 -15 -20.5 -28.5t-50.5 -15.5h-1q-6 0 -8 6q-1 7 5 10l17 7q21 9 21 21.5t-21 21.5l-17 7q-8 3 -3 11q1 3 3 4l17 7q21 9 21 21.5t-21 21.5l-17 7q-6 3 -5 9q2 7 8 7q21 -2 37.5 -9t25.5 -16.5t9 -18.5zM374 223q-11 10 -30 10
t-30 -10l-10 -9q-6 -5 -13.5 -1t-6.5 12q3 18 21.5 30t38.5 12t38.5 -12t21.5 -30q1 -8 -6.5 -12t-13.5 1zM136 240q0 13 9.5 22.5t22.5 9.5t22.5 -9.5t9.5 -22.5q0 -9 -4.5 -16.5t-11.5 -11.5t-16 -4q-7 0 -12.5 2.5t-10 6.5t-7 10t-2.5 13zM501 46q7 -18 -1.5 -34.5
t-26.5 -21.5l-83 -22q-10 -2 -13 7l-23 83q-5 18 5 34t29 19q17 2 31 -7.5t18 -25.5l3 -9l8 2q30 8 48 -16q3 -5 5 -9zM334 12q11 -40 13 -47q-47 -21 -99 -21q-103 0 -175.5 72.5t-72.5 175.5t72.5 175.5t175.5 72.5t175.5 -72.5t72.5 -175.5q0 -46 -17 -90q-4 1 -6.5 1.5
t-6 1t-6.5 0.5q-7 13 -22 24q10 31 10 63q0 83 -58.5 141.5t-141.5 58.5q-54 0 -100 -27t-73 -73t-27 -100q0 -83 58.5 -141.5t141.5 -58.5q45 0 86 20z" />
    <glyph glyph-name="laugh" unicode="&#xf599;" horiz-adv-x="496" 
d="M248 440q103 0 175.5 -72.5t72.5 -175.5t-72.5 -175.5t-175.5 -72.5t-175.5 72.5t-72.5 175.5t72.5 175.5t175.5 72.5zM389.5 50.5q58.5 58.5 58.5 141.5t-58.5 141.5t-141.5 58.5t-141 -59q-10 -9 -18 -19.5t-14.5 -21.5t-11.5 -23t-8.5 -25t-5 -26t-1.5 -26
q0 -83 58.5 -141.5t141.5 -58.5t141.5 58.5zM328 224q-13 0 -22.5 9.5t-9.5 22.5t9.5 22.5t22.5 9.5t22.5 -9.5t9.5 -22.5t-9.5 -22.5t-22.5 -9.5zM168 224q-13 0 -22.5 9.5t-9.5 22.5t9.5 22.5t22.5 9.5t22.5 -9.5t9.5 -22.5t-9.5 -22.5t-22.5 -9.5zM362 160q7 0 11 -4.5
t3 -10.5q-6 -45 -40.5 -75t-80.5 -30h-14q-30 0 -56.5 14t-43.5 38t-21 53q0 3 1 5.5t2.5 5t4.5 3.5t6 1h228z" />
    <glyph glyph-name="laugh-beam" unicode="&#xf59a;" horiz-adv-x="496" 
d="M248 440q103 0 175.5 -72.5t72.5 -175.5t-72.5 -175.5t-175.5 -72.5t-175.5 72.5t-72.5 175.5t72.5 175.5t175.5 72.5zM389.5 50.5q58.5 58.5 58.5 141.5t-58.5 141.5t-141.5 58.5t-141 -59q-10 -9 -18 -19.5t-14.5 -21.5t-11.5 -23t-8.5 -25t-5 -26t-1.5 -26
q0 -83 58.5 -141.5t141.5 -58.5t141.5 58.5zM328 296q19 0 36.5 -20.5t19.5 -50.5q0 -4 -3 -6.5t-6.5 -2t-5.5 3.5l-10 17q-12 22 -31 22t-32 -22l-9 -17q-2 -3 -6 -3.5t-6.5 1.5t-2.5 7q2 30 19.5 50.5t36.5 20.5zM127 220q-3 -5 -9.5 -3.5t-5.5 8.5q2 30 19.5 50.5
t36.5 20.5t36.5 -20.5t19.5 -50.5q0 -7 -6 -8.5t-9 3.5l-9 17q-13 22 -32 22t-32 -22zM362 160q7 0 11 -4.5t3 -10.5q-6 -45 -40.5 -75t-80.5 -30h-14q-30 0 -56.5 14t-43.5 38t-21 53q0 3 1 5.5t2.5 5t4.5 3.5t6 1h228z" />
    <glyph glyph-name="laugh-squint" unicode="&#xf59b;" horiz-adv-x="496" 
d="M248 440q103 0 175.5 -72.5t72.5 -175.5t-72.5 -175.5t-175.5 -72.5t-175.5 72.5t-72.5 175.5t72.5 175.5t175.5 72.5zM389.5 50.5q58.5 58.5 58.5 141.5t-58.5 141.5t-141.5 58.5t-141 -59q-10 -9 -18 -19.5t-14.5 -21.5t-11.5 -23t-8.5 -25t-5 -26t-1.5 -26
q0 -83 58.5 -141.5t141.5 -58.5t141.5 58.5zM344 252l33 -40q7 -8 0 -15.5t-15 -2.5l-80 48q-6 3 -6 10t6 10l80 48q9 5 15.5 -2.5t-0.5 -15.5zM134 194q-9 -5 -15.5 2.5t0.5 15.5l33 40l-33 40q-7 8 0 15.5t15 2.5l80 -48q6 -3 6 -10t-6 -10zM362 160q7 0 11 -4.5t3 -10.5
q-6 -45 -40.5 -75t-80.5 -30h-14q-30 0 -56.5 14t-43.5 38t-21 53q0 3 1 5.5t2.5 5t4.5 3.5t6 1h228z" />
    <glyph glyph-name="laugh-wink" unicode="&#xf59c;" horiz-adv-x="496" 
d="M248 440q103 0 175.5 -72.5t72.5 -175.5t-72.5 -175.5t-175.5 -72.5t-175.5 72.5t-72.5 175.5t72.5 175.5t175.5 72.5zM389.5 50.5q58.5 58.5 58.5 141.5t-58.5 141.5t-141.5 58.5t-141 -59q-10 -9 -18 -19.5t-14.5 -21.5t-11.5 -23t-8.5 -25t-5 -26t-1.5 -26
q0 -83 58.5 -141.5t141.5 -58.5t141.5 58.5zM328 284q13 0 26 -5t22.5 -15t11.5 -22q1 -8 -6.5 -12t-13.5 1l-10 9q-7 6 -18.5 8.5t-23 0t-19.5 -8.5l-9 -9q-6 -5 -13.5 -1t-6.5 12q2 12 11.5 22t22.5 15t26 5zM168 224q-13 0 -22.5 9.5t-9.5 22.5t9.5 22.5t22.5 9.5
t22.5 -9.5t9.5 -22.5t-9.5 -22.5t-22.5 -9.5zM362 160q7 0 11 -4.5t3 -10.5q-6 -45 -40.5 -75t-80.5 -30h-14q-30 0 -56.5 14t-43.5 38t-21 53q0 3 1 5.5t2.5 5t4.5 3.5t6 1h228z" />
    <glyph glyph-name="meh-blank" unicode="&#xf5a4;" horiz-adv-x="496" 
d="M248 440q103 0 175.5 -72.5t72.5 -175.5t-72.5 -175.5t-175.5 -72.5t-175.5 72.5t-72.5 175.5t72.5 175.5t175.5 72.5zM248 -8q83 0 141.5 58.5t58.5 141.5t-58.5 141.5t-141.5 58.5t-141.5 -58.5t-58.5 -141.5t58.5 -141.5t141.5 -58.5zM168 272q13 0 22.5 -9.5
t9.5 -22.5t-9.5 -22.5t-22.5 -9.5t-22.5 9.5t-9.5 22.5t9.5 22.5t22.5 9.5zM328 272q13 0 22.5 -9.5t9.5 -22.5t-9.5 -22.5t-22.5 -9.5t-22.5 9.5t-9.5 22.5t9.5 22.5t22.5 9.5z" />
    <glyph glyph-name="meh-rolling-eyes" unicode="&#xf5a5;" horiz-adv-x="496" 
d="M248 440q103 0 175.5 -72.5t72.5 -175.5t-72.5 -175.5t-175.5 -72.5t-175.5 72.5t-72.5 175.5t72.5 175.5t175.5 72.5zM248 -8q83 0 141.5 58.5t58.5 141.5t-58.5 141.5t-141.5 58.5t-141.5 -58.5t-58.5 -141.5t58.5 -141.5t141.5 -58.5zM336 296q30 0 51 -21t21 -51
t-21 -51t-51 -21t-51 21t-21 51t21 51t51 21zM336 184q17 0 28.5 11.5t11.5 28.5q0 20 -18 32q2 -4 2 -8q0 -10 -7 -17t-17 -7t-17 7t-7 17q0 4 2 8q-18 -12 -18 -32q0 -17 11.5 -28.5t28.5 -11.5zM232 224q0 -30 -21 -51t-51 -21t-51 21t-21 51t21 51t51 21t51 -21t21 -51z
M120 224q0 -17 11.5 -28.5t28.5 -11.5t28.5 11.5t11.5 28.5q0 20 -18 32q2 -4 2 -8q0 -10 -7 -17t-17 -7t-17 7t-7 17q0 4 2 8q-18 -12 -18 -32zM312 96q10 0 17 -7t7 -17t-7 -17t-17 -7h-128q-10 0 -17 7t-7 17t7 17t17 7h128z" />
    <glyph glyph-name="sad-cry" unicode="&#xf5b3;" horiz-adv-x="496" 
d="M248 440q103 0 175.5 -72.5t72.5 -175.5t-72.5 -175.5t-175.5 -72.5t-175.5 72.5t-72.5 175.5t72.5 175.5t175.5 72.5zM392 54q56 58 56 138q0 83 -58.5 141.5t-141.5 58.5q-54 0 -100 -27t-73 -73t-27 -100q0 -80 56 -138v114q0 10 7 17t17 7q6 0 12 -3t9 -9t3 -12v-151
q45 -25 96 -25t96 25v151q0 10 7 17t17 7t17 -7t7 -17v-114zM205.5 213.5q-7.5 -4.5 -13.5 1.5l-9 9q-12 9 -31 9t-30 -9l-10 -9q-7 -5 -14 -1t-6 12q2 12 11.5 22t22.5 15t26 5q20 0 38.5 -12t21.5 -30q1 -8 -6.5 -12.5zM344 268q10 0 20 -3t18 -8.5t14 -13.5t8 -17
q1 -8 -6.5 -12t-13.5 1l-10 9q-11 9 -30 9t-31 -9l-9 -9q-6 -5 -13.5 -1t-6.5 12q3 18 21.5 30t38.5 12zM248 176q23 0 39.5 -19t16.5 -45t-16.5 -45t-39.5 -19t-39.5 19t-16.5 45t16.5 45t39.5 19z" />
    <glyph glyph-name="sad-tear" unicode="&#xf5b4;" horiz-adv-x="496" 
d="M248 440q103 0 175.5 -72.5t72.5 -175.5t-72.5 -175.5t-175.5 -72.5t-175.5 72.5t-72.5 175.5t72.5 175.5t175.5 72.5zM248 -8q83 0 141.5 58.5t58.5 141.5t-58.5 141.5t-141.5 58.5t-141.5 -58.5t-58.5 -141.5t58.5 -141.5t141.5 -58.5zM256 144q60 0 98 -46q7 -8 6 -18
t-9 -16t-17.5 -5t-15.5 8q-24 29 -62 29q-10 0 -17 7t-7 17t7 17t17 7zM168 208q-13 0 -22.5 9.5t-9.5 22.5t9.5 22.5t22.5 9.5t22.5 -9.5t9.5 -22.5t-9.5 -22.5t-22.5 -9.5zM328 272q13 0 22.5 -9.5t9.5 -22.5t-9.5 -22.5t-22.5 -9.5t-22.5 9.5t-9.5 22.5t9.5 22.5
t22.5 9.5zM162 173q2 3 5.5 3t6.5 -3q36 -49 36 -68q0 -17 -12.5 -29t-29.5 -12t-29.5 12t-12.5 29q0 19 36 68z" />
    <glyph glyph-name="smile-beam" unicode="&#xf5b8;" horiz-adv-x="496" 
d="M248 440q103 0 175.5 -72.5t72.5 -175.5t-72.5 -175.5t-175.5 -72.5t-175.5 72.5t-72.5 175.5t72.5 175.5t175.5 72.5zM248 -8q83 0 141.5 58.5t58.5 141.5t-58.5 141.5t-141.5 58.5t-141.5 -58.5t-58.5 -141.5t58.5 -141.5t141.5 -58.5zM332 135q6 8 16 9t17.5 -5.5
t8.5 -16.5t-5 -17q-47 -57 -121 -57q-35 0 -66.5 15t-54.5 42q-6 7 -5 17t8.5 16.5t17.5 5.5t16 -9q33 -39 84 -39t84 39zM136 237l-9 -17q-3 -6 -9 -4q-7 2 -6 9q2 30 19.5 50.5t36.5 20.5t36.5 -20.5t19.5 -50.5q1 -7 -5.5 -9t-9.5 4l-9 17q-13 22 -32 22t-32 -22z
M328 296q19 0 36.5 -20.5t19.5 -50.5q1 -7 -5.5 -9t-9.5 4l-9 17q-13 22 -32 22t-32 -22l-9 -17q-3 -6 -9 -4q-7 2 -6 9q2 30 19.5 50.5t36.5 20.5z" />
    <glyph glyph-name="surprise" unicode="&#xf5c2;" horiz-adv-x="496" 
d="M248 440q103 0 175.5 -72.5t72.5 -175.5t-72.5 -175.5t-175.5 -72.5t-175.5 72.5t-72.5 175.5t72.5 175.5t175.5 72.5zM248 -8q83 0 141.5 58.5t58.5 141.5t-58.5 141.5t-141.5 58.5t-141.5 -58.5t-58.5 -141.5t58.5 -141.5t141.5 -58.5zM248 168q26 0 45 -19t19 -45
t-19 -45t-45 -19t-45 19t-19 45t19 45t45 19zM200 240q0 -13 -9.5 -22.5t-22.5 -9.5t-22.5 9.5t-9.5 22.5t9.5 22.5t22.5 9.5t22.5 -9.5t9.5 -22.5zM328 272q13 0 22.5 -9.5t9.5 -22.5t-9.5 -22.5t-22.5 -9.5t-22.5 9.5t-9.5 22.5t9.5 22.5t22.5 9.5z" />
    <glyph glyph-name="tired" unicode="&#xf5c8;" horiz-adv-x="496" 
d="M248 440q103 0 175.5 -72.5t72.5 -175.5t-72.5 -175.5t-175.5 -72.5t-175.5 72.5t-72.5 175.5t72.5 175.5t175.5 72.5zM248 -8q83 0 141.5 58.5t58.5 141.5t-58.5 141.5t-141.5 58.5t-141.5 -58.5t-58.5 -141.5t58.5 -141.5t141.5 -58.5zM377.5 295.5
q6.5 -7.5 -0.5 -15.5l-33 -40l33 -40q7 -8 0.5 -15.5t-15.5 -2.5l-80 48q-6 3 -6 10t6 10l80 48q9 5 15.5 -2.5zM220 240q0 -7 -6 -10l-80 -48q-9 -5 -15.5 2.5t0.5 15.5l33 40l-33 40q-7 8 0 15.5t15 2.5l80 -48q6 -3 6 -10zM248 176q23 0 46.5 -11.5t40.5 -33.5t21 -48
q1 -6 -1.5 -11t-6.5 -7t-8 0q-35 15 -92 15t-92 -15q-7 -3 -12 3t-4 15q5 39 38.5 66t69.5 27z" />
  </font>
</defs>
</svg>
